<?xml version="1.0" standalone="no"?>
<!DOCTYPE svg PUBLIC "-//W3C//DTD SVG 1.1//EN" "http://www.w3.org/Graphics/SVG/1.1/DTD/svg11.dtd" >
<svg xmlns="http://www.w3.org/2000/svg">
<metadata>
Created by Font 20130207 at Fri May 17 17:50:05 2013
 By Andrew Eblin
Copyright (c) 2002 by Dylan Smith &#38; Kienan Smith. Published by GarageFonts USA 301-879-9222 - - www.garagefonts.com. All rights reserved.
</metadata>
<defs>
<font id="kdbefnayqv" >
  <font-face 
    font-family="District-Demi"
    font-weight="600"
    font-stretch="normal"
    units-per-em="1000"
    panose-1="2 0 7 3 4 0 0 2 0 4"
    ascent="800"
    descent="-200"
    x-height="511"
    cap-height="703"
    bbox="-55 -218 1377 955"
    underline-thickness="20"
    underline-position="-113"
    unicode-range="U+0020-FB02"
  />
<missing-glyph horiz-adv-x="0" 
 />
    <glyph glyph-name="fi" unicode="fi" horiz-adv-x="615" 
d="M302 623q-56 0 -56 -64v-48h299v-511h-133v412h-166v-412h-133v412h-78v99h78v56q0 70 38 108q37 38 107 38t103 -25v-94q-19 29 -59 29z" />
    <glyph glyph-name="fl" unicode="fl" horiz-adv-x="629" 
d="M352 412h-108v-412h-131v412h-78v99h78l-1 55q0 70 36 108t99 38q64 0 103 -25v-93q-20 28 -58 28q-48 0 -48 -64v-47h108v-99zM559 0h-135v703h135v-703z" />
    <glyph glyph-name=".notdef" horiz-adv-x="0" 
 />
    <glyph glyph-name=".notdef" horiz-adv-x="0" 
 />
    <glyph glyph-name=".null" unicode="&#xe000;" horiz-adv-x="0" 
 />
    <glyph glyph-name="nonmarkingreturn" horiz-adv-x="333" 
 />
    <glyph glyph-name="space" unicode=" " horiz-adv-x="279" 
 />
    <glyph glyph-name="exclam" unicode="!" horiz-adv-x="290" 
d="M220 65q0 -31 -22 -53t-53 -21q-31 -1 -53 21t-22 53t22 53t53 21q31 1 53 -21t22 -53zM78 703h131v-292l-25 -193h-81l-25 193v292z" />
    <glyph glyph-name="quotedbl" unicode="&#x22;" horiz-adv-x="456" 
d="M184 697q-28 -247 -36 -297h-61l-37 296q0 14 26 22t44 6q20 0 42 -7t22 -20zM406 697q-29 -247 -36 -297h-61l-37 296q0 13 25 21q25 7 44 7t42 -7t23 -20z" />
    <glyph glyph-name="numbersign" unicode="#" horiz-adv-x="748" 
d="M441 427h-124l-11 -145h125zM678 424h-126l-10 -138h125v-100h-131l-12 -186h-112l13 186h-125l-14 -186h-110l13 186h-119v100h125l10 137h-124v101h131l13 179h111l-13 -179h125l13 179h110l-12 -178h119v-101z" />
    <glyph glyph-name="dollar" unicode="$" horiz-adv-x="668" 
d="M338 588q-52 0 -83 -20t-31 -58t28 -56t66 -28q39 -10 110 -30q71 -18 115 -46q75 -48 75 -136t-62 -143q-62 -56 -162 -68v-59h-109v59q-151 14 -235 130l96 89q63 -105 196 -105q61 1 99 25t38 64q-1 40 -47 58q-48 20 -90 30q-139 33 -198 82q-60 49 -60 132
q0 82 56 130t145 61v58h109v-56q68 -7 116 -34t97 -72l-86 -91q-74 84 -183 84z" />
    <glyph glyph-name="percent" unicode="%" horiz-adv-x="1008" 
d="M310 488h1q0 148 -79 149q-80 -1 -80 -147t79 -146t79 144zM698 215q0 -147 80 -147t79 146q0 146 -79 146q-80 2 -80 -145zM230 266q-86 0 -132 62q-48 62 -48 158t46 162t136 66q88 0 134 -63t46 -160t-48 -161t-134 -64zM743 714l-376 -714h-92l376 714h92zM776 -10
q-86 0 -132 62q-48 62 -48 158t46 162t136 65q89 0 135 -63q45 -63 45 -160q0 -96 -48 -160t-134 -64z" />
    <glyph glyph-name="ampersand" unicode="&#x26;" horiz-adv-x="714" 
d="M188 206q0 -111 137 -111q44 0 77 17l-163 181q-51 -30 -51 -87zM244 531q0 -32 6 -40t253 -294q13 22 18 52h121q-4 -85 -53 -151l85 -98h-170l-18 20q-64 -32 -170 -32t-186 54t-80 166t122 158q-38 38 -54 70t-15 78q1 102 77 154t174 51t157 -29q60 -28 116 -80
l-87 -91q-74 84 -183 84q-49 0 -81 -20t-32 -52z" />
    <glyph glyph-name="quotesingle" unicode="'" horiz-adv-x="234" 
d="M184 697q-28 -247 -36 -297h-61l-37 296q0 14 26 22t44 6q20 0 42 -7t22 -20z" />
    <glyph glyph-name="parenleft" unicode="(" horiz-adv-x="359" 
d="M180 304q0 -252 145 -429l-59 -57q-216 213 -216 487q0 146 60 275t161 220l58 -53q-149 -191 -149 -443z" />
    <glyph glyph-name="parenright" unicode=")" horiz-adv-x="359" 
d="M309 305q0 -274 -216 -487l-59 57q145 177 145 429t-149 443l58 53q100 -91 160 -220t61 -275z" />
    <glyph glyph-name="asterisk" unicode="*" horiz-adv-x="452" 
d="M402 472l-38 -76l-108 69l11 -130h-84l12 131l-109 -66l-36 76l126 45l-126 43l36 76l109 -67l-12 131h84l-11 -129l108 68l38 -75l-126 -48z" />
    <glyph glyph-name="plus" unicode="+" horiz-adv-x="642" 
d="M592 264h-215v-219h-111v219h-216v107h216v219h110v-219h216v-107z" />
    <glyph glyph-name="comma" unicode="," horiz-adv-x="266" 
d="M226 125l-109 -256l-92 20l68 236h133z" />
    <glyph glyph-name="hyphen" unicode="-" horiz-adv-x="376" 
d="M326 279h-276v125h276v-125z" />
    <glyph glyph-name="period" unicode="." horiz-adv-x="230" 
d="M190 62q0 -30 -22 -52t-53 -22t-53 22t-22 52t22 53q22 22 53 22t53 -22q22 -23 22 -53z" />
    <glyph glyph-name="slash" unicode="/" horiz-adv-x="508" 
d="M488 748l-334 -793h-134l335 793h133z" />
    <glyph glyph-name="zero" unicode="0" horiz-adv-x="672" 
d="M485 350q-1 118 -37 189q-36 70 -110 70t-112 -71q-39 -72 -39 -190q1 -118 37 -186t109 -69t113 69t39 188zM622 352q0 -166 -76 -266t-210 -100t-210 100t-76 266t76 264q76 100 210 100t210 -100q76 -98 76 -264z" />
    <glyph glyph-name="one" unicode="1" horiz-adv-x="439" 
d="M339 0h-139v518q-21 -12 -130 -12v97q139 3 148 100h121v-703z" />
    <glyph glyph-name="two" unicode="2" horiz-adv-x="627" 
d="M65 560q73 158 269 158q94 0 164 -56t69 -144t-37 -142t-110 -102q-74 -50 -125 -86t-76 -77h343v-111h-512q3 117 81 193q41 41 68 62q26 21 31 25q6 4 20 14t18 13t22 15t54 37q88 62 88 139q0 47 -33 78t-91 31q-88 0 -145 -98z" />
    <glyph glyph-name="three" unicode="3" horiz-adv-x="642" 
d="M61 561q58 157 261 157q108 0 172 -56t64 -144q0 -54 -30 -94t-84 -57q66 -11 102 -55t36 -106q0 -106 -73 -162t-203 -56q-192 0 -266 160l102 59q45 -112 166 -112q65 0 102 29t37 82q0 105 -141 105h-75v100h67q129 0 129 102q0 43 -30 72q-31 29 -89 29t-94 -30
t-53 -74z" />
    <glyph glyph-name="four" unicode="4" horiz-adv-x="666" 
d="M401 256v289l-218 -289h218zM538 152v-152h-137v153h-351v98l349 452h139v-447h78l-1 -104h-77z" />
    <glyph glyph-name="five" unicode="5" horiz-adv-x="644" 
d="M594 232q0 -114 -78 -180t-204 -65q-184 0 -262 143l97 62q62 -99 167 -99q71 0 108 38t37 101t-35 99q-36 36 -108 36t-118 -66l-117 28l25 374h447v-108h-340l-12 -172q61 48 161 48t166 -62q66 -63 66 -177z" />
    <glyph glyph-name="six" unicode="6" horiz-adv-x="655" 
d="M334 356q-62 0 -106 -39t-44 -91t37 -94q37 -41 105 -41q68 -1 108 35t40 98t-39 97q-38 35 -101 35zM605 226q-1 -108 -77 -174q-76 -64 -208 -64t-200 88q-70 88 -70 237q0 148 75 270q83 133 259 133q96 0 165 -57l-62 -86q-41 35 -109 36t-111 -37q-76 -67 -87 -190
q62 73 176 73q114 -1 182 -61q67 -60 67 -168z" />
    <glyph glyph-name="seven" unicode="7" horiz-adv-x="610" 
d="M40 591v112h510v-101q-121 -137 -178 -278t-68 -324h-138q27 332 237 591h-363z" />
    <glyph glyph-name="eight" unicode="8" horiz-adv-x="665" 
d="M332 322q-70 0 -110 -32t-39 -82q0 -50 38 -84q38 -35 111 -35q74 -1 112 33t38 84t-40 83t-110 33zM333 619q-58 1 -92 -29t-34 -72q-1 -42 33 -71q34 -28 94 -28t94 28q32 28 32 71t-35 72q-34 29 -92 29zM615 215q0 -113 -81 -170q-82 -57 -202 -57t-201 56t-81 168
t128 162q-98 48 -98 142t73 148t181 54t181 -52t73 -149q0 -98 -98 -141q125 -48 125 -161z" />
    <glyph glyph-name="nine" unicode="9" horiz-adv-x="655" 
d="M471 478q0 52 -37 94q-38 41 -106 41t-107 -36t-39 -98q0 -63 38 -97t102 -34t106 39q43 39 43 91zM271 -12q-98 0 -165 57l62 86q44 -37 111 -37t109 38q74 65 88 190q-64 -73 -178 -73q-114 1 -181 61t-67 168t77 174q77 64 208 64t201 -88t69 -237q0 -148 -75 -270
q-82 -133 -259 -133z" />
    <glyph glyph-name="colon" unicode=":" horiz-adv-x="250" 
d="M125 -12q-31 0 -53 22t-22 52t22 53q22 22 53 22t53 -22t22 -52q0 -31 -22 -53t-53 -22zM200 440q0 -30 -22 -52t-53 -22t-53 22t-22 52t22 53q22 22 53 22t53 -22q22 -23 22 -53z" />
    <glyph glyph-name="semicolon" unicode=";" horiz-adv-x="283" 
d="M226 125l-109 -256l-92 20l68 236h133zM233 440q0 -30 -22 -52t-53 -22t-53 22t-22 52t22 53q22 22 53 22t53 -22q22 -23 22 -53z" />
    <glyph glyph-name="less" unicode="&#x3c;" horiz-adv-x="578" 
d="M538 11l-498 289v99l498 290v-133l-372 -205l372 -206v-134z" />
    <glyph glyph-name="equal" unicode="=" horiz-adv-x="659" 
d="M609 153h-559v109h559v-109zM50 482h559v-109l-559 -1v110z" />
    <glyph glyph-name="greater" unicode="&#x3e;" horiz-adv-x="578" 
d="M538 301l-498 -290v132l371 206l-371 206v134l498 -290v-98z" />
    <glyph glyph-name="question" unicode="?" horiz-adv-x="571" 
d="M345 62q0 -30 -22 -52t-53 -22t-53 22t-22 52t22 52t53 22t53 -22t22 -52zM531 543q1 -71 -25 -110t-70 -70q-59 -42 -83 -69q-24 -26 -24 -78h-123q0 65 25 111t90 92q65 45 75 75q4 14 4 42q0 26 -30 52t-84 25q-108 0 -151 -103l-95 68q75 140 253 140q111 0 175 -52
t63 -123z" />
    <glyph glyph-name="at" unicode="@" horiz-adv-x="860" 
d="M528 352q0 85 -73 85q-45 -1 -85 -51t-40 -99t22 -73t51 -25q57 0 91 52t34 111zM800 400q0 -130 -55 -210q-55 -79 -132 -79t-101 65q-49 -60 -138 -60q-56 0 -92 44t-36 123q0 77 59 153t139 76q38 0 66 -12t52 -47l14 44h77q0 -9 -53 -209l-17 -69q-1 -2 -1 -12
t13 -22t29 -13h2q32 0 58 34q52 68 53 186q-1 118 -77 188t-207 71q-131 0 -231 -104t-99 -250q0 -146 91 -225q90 -79 214 -79t236 87l30 -50q-130 -98 -268 -98t-248 90q-54 44 -86 114t-32 157q0 175 118 297t277 122t252 -91t93 -221z" />
    <glyph glyph-name="A" unicode="A" horiz-adv-x="732" 
d="M464 262l-97 300l-99 -300h196zM702 0h-151l-52 153h-266l-52 -153h-151l264 703h148z" />
    <glyph glyph-name="B" unicode="B" horiz-adv-x="697" 
d="M502 210q0 56 -38 82t-91 25h-163v-208h161q131 0 131 101zM367 423q111 0 111 86t-105 86h-163v-172h157zM396 703q223 -1 223 -185q0 -100 -106 -141q129 -37 129 -168q0 -209 -265 -209h-307v703h326z" />
    <glyph glyph-name="C" unicode="C" horiz-adv-x="692" 
d="M193 354q0 -110 47 -180q46 -70 138 -70t140 89l117 -74q-88 -135 -261 -135q-107 0 -182 53q-142 100 -142 314q0 161 87 265t238 104q105 0 177 -48t110 -133l-135 -49q-44 111 -153 111q-85 -1 -133 -69t-48 -178z" />
    <glyph glyph-name="D" unicode="D" horiz-adv-x="707" 
d="M515 352q-1 120 -49 177q-48 58 -157 58h-97v-472h93q110 1 160 59t50 178zM657 355q0 -357 -348 -355h-239v703h234q174 1 264 -83t89 -265z" />
    <glyph glyph-name="E" unicode="E" horiz-adv-x="614" 
d="M584 0h-514v703h495v-113h-355v-167h270v-112h-270v-199h374v-112z" />
    <glyph glyph-name="F" unicode="F" horiz-adv-x="587" 
d="M567 590h-357v-173h270v-112h-270v-305h-140v703h497v-113z" />
    <glyph glyph-name="G" unicode="G" horiz-adv-x="736" 
d="M686 306q0 -134 -85 -228t-233 -94t-232 106q-86 106 -86 264t87 262t239 104q100 0 176 -50t110 -130l-134 -49q-54 110 -148 110q-140 0 -176 -158q-10 -42 -9 -90q0 -99 43 -175q43 -77 145 -77q67 0 113 49t48 118h-154v105h296v-67z" />
    <glyph glyph-name="H" unicode="H" horiz-adv-x="723" 
d="M653 0h-140v302h-304v-302h-139v703h139v-282h303v282h141v-703z" />
    <glyph glyph-name="I" unicode="I" horiz-adv-x="280" 
d="M210 0h-140v703h140v-703z" />
    <glyph glyph-name="J" unicode="J" horiz-adv-x="554" 
d="M484 269q0 -280 -252 -280q-82 1 -140 37t-77 111l95 71q33 -104 118 -104q116 0 116 160v439h140v-434z" />
    <glyph glyph-name="K" unicode="K" horiz-adv-x="708" 
d="M210 0h-140v703h140v-329l275 329h172l-235 -264l261 -439h-163l-193 334l-117 -132v-202z" />
    <glyph glyph-name="L" unicode="L" horiz-adv-x="561" 
d="M541 0h-471v704h141v-584h330v-120z" />
    <glyph glyph-name="M" unicode="M" horiz-adv-x="851" 
d="M781 0h-140v480l-182 -480h-69l-180 479v-479h-140v703h171l186 -499l183 499h171v-703z" />
    <glyph glyph-name="N" unicode="N" horiz-adv-x="739" 
d="M669 0h-141l-318 501v-501h-140v703h143l316 -498v498h140v-703z" />
    <glyph glyph-name="O" unicode="O" 
d="M555 362q1 56 -17 110t-60 92t-116 37q-73 -1 -121 -69t-48 -178t47 -180t135 -70q131 0 169 158q10 44 11 100zM373 -16q-106 0 -181 53q-142 100 -142 314q0 161 87 265t238 104q106 0 181 -52q143 -99 142 -315q-2 -216 -144 -316q-76 -53 -181 -53z" />
    <glyph glyph-name="P" unicode="P" horiz-adv-x="654" 
d="M494 484h1q1 64 -37 88t-103 23h-145v-224h151q133 0 133 113zM634 488q0 -117 -72 -171t-186 -54h-166v-263h-140v703h302q122 0 192 -49t70 -166z" />
    <glyph glyph-name="Q" unicode="Q" 
d="M555 354q1 142 -77 210q-42 38 -98 37q-104 0 -146 -78t-41 -155q0 -78 16 -132t57 -92q41 -40 101 -40q17 0 28 6q-41 57 -49 67l115 81l38 -54q56 48 56 150zM699 340q0 -172 -108 -267l50 -71l-114 -80q-42 59 -54 76q-35 -14 -121 -14t-160 53q-142 100 -142 314
q0 161 87 265t239 104t238 -104q85 -104 85 -276z" />
    <glyph glyph-name="R" unicode="R" horiz-adv-x="670" 
d="M492 487q0 107 -132 107h-150v-214h145q99 0 125 52q12 22 12 55zM210 274v-274h-140v703h309q113 0 183 -50t70 -163q0 -153 -161 -198l174 -292h-160l-156 274h-119z" />
    <glyph glyph-name="S" unicode="S" horiz-adv-x="633" 
d="M197 525q-1 -37 29 -57t132 -48t168 -80q67 -52 67 -146t-71 -152q-72 -58 -182 -57q-110 0 -174 30t-116 97l90 87q66 -97 187 -97q61 0 94 26t33 66q0 72 -143 110t-197 84t-55 136t75 143q76 52 174 52q98 -1 158 -29t116 -80l-86 -91q-74 84 -183 84q-52 -1 -84 -21
t-32 -57z" />
    <glyph glyph-name="T" unicode="T" horiz-adv-x="582" 
d="M562 591h-201v-591h-140v590h-201v113h542v-112z" />
    <glyph glyph-name="U" unicode="U" horiz-adv-x="678" 
d="M623 325q1 -251 -147 -315q-56 -24 -136 -25q-159 0 -222 88t-63 239v391h140v-419q0 -84 32 -132q33 -48 113 -48t112 46t31 129v424h140v-378z" />
    <glyph glyph-name="V" unicode="V" horiz-adv-x="693" 
d="M663 703l-246 -703h-143l-244 703h150l166 -546l168 546h149z" />
    <glyph glyph-name="W" unicode="W" horiz-adv-x="932" 
d="M902 703l-171 -703h-140l-125 524l-124 -524h-139l-173 703h142l109 -527l124 527h124l126 -526l107 526h140z" />
    <glyph glyph-name="X" unicode="X" horiz-adv-x="723" 
d="M693 0h-165l-166 276l-171 -276h-161l247 369l-220 334h165l141 -236l142 236h161l-219 -332z" />
    <glyph glyph-name="Y" unicode="Y" horiz-adv-x="697" 
d="M417 0h-141v281l-261 422h162l170 -306l172 306h163l-265 -421v-282z" />
    <glyph glyph-name="Z" unicode="Z" horiz-adv-x="632" 
d="M596 114v-114h-561v98l389 492h-367v113h540v-100l-386 -489h385z" />
    <glyph glyph-name="bracketleft" unicode="[" horiz-adv-x="352" 
d="M312 -164h-242v964h242v-93h-122v-777h122v-94z" />
    <glyph glyph-name="backslash" unicode="\" horiz-adv-x="498" 
d="M483 -45h-133l-335 793h134z" />
    <glyph glyph-name="bracketright" unicode="]" horiz-adv-x="352" 
d="M282 -164h-242v94h122v776h-122v94h242v-964z" />
    <glyph glyph-name="asciicircum" unicode="^" horiz-adv-x="628" 
d="M558 351h-122l-121 231l-124 -231h-121l198 352h96z" />
    <glyph glyph-name="underscore" unicode="_" horiz-adv-x="500" 
d="M505 -150h-510v75h510v-75z" />
    <glyph glyph-name="grave" unicode="`" horiz-adv-x="392" 
d="M322 584h-92l-160 149h161z" />
    <glyph glyph-name="a" unicode="a" horiz-adv-x="581" 
d="M302 239q-50 0 -88 -24q-38 -23 -39 -57t21 -52t56 -19q34 1 68 19t49 52v68q-17 13 -67 13zM278 428q-72 0 -110 -62l-88 48q32 54 82 82t138 28q200 0 200 -179v-270q0 -22 31 -22v-53h-92q-64 0 -69 51q-50 -62 -140 -62q-90 1 -135 45t-45 122t65 125t173 47
q42 0 81 -7v31q2 76 -91 76z" />
    <glyph glyph-name="b" unicode="b" horiz-adv-x="586" 
d="M402 257q0 71 -24 115t-70 44t-72 -29t-34 -72v-149q34 -69 103 -69q97 0 97 160zM536 261q0 -125 -53 -199t-139 -74t-142 61v-49h-132v703h132v-239q52 60 138 60t141 -69t55 -194z" />
    <glyph glyph-name="c" unicode="c" horiz-adv-x="541" 
d="M290 -14q-110 0 -175 74t-65 198t68 196t187 72t195 -112l-99 -66q-37 70 -96 70t-89 -43t-31 -115q0 -72 27 -120q27 -46 74 -46t70 18t47 58l98 -62q-74 -122 -211 -122z" />
    <glyph glyph-name="d" unicode="d" horiz-adv-x="587" 
d="M281 97q69 0 103 69v149q-7 41 -34 71t-67 30q-99 0 -99 -160t97 -159zM517 0h-133v49q-56 -61 -142 -61t-139 74t-53 199t55 194t141 69t138 -60v239h133v-703z" />
    <glyph glyph-name="e" unicode="e" horiz-adv-x="572" 
d="M292 424q-92 0 -108 -112h212q-12 112 -104 112zM183 224q7 -132 125 -132q64 0 122 63l85 -66q-85 -103 -209 -103t-190 74t-66 198q0 123 68 195t178 72q112 0 172 -78t59 -201q0 -7 -3 -22h-341z" />
    <glyph glyph-name="f" unicode="f" horiz-adv-x="387" 
d="M352 412h-108v-412h-131v412h-78v99h78l-1 55q0 70 36 108t99 38q64 0 103 -25v-93q-20 28 -58 28q-48 0 -48 -64v-47h108v-99z" />
    <glyph glyph-name="g" unicode="g" horiz-adv-x="591" 
d="M274 416q-45 0 -68 -47t-23 -111q0 -163 106 -163q29 1 51 13t30 22t19 30v160q-10 42 -40 69t-75 27zM521 49q1 -127 -65 -195t-185 -68t-191 110l96 64q42 -65 95 -65q53 1 85 33t32 85v34q-50 -59 -140 -59t-144 73t-54 195t59 194q59 73 148 73t132 -62v50h132v-462z
" />
    <glyph glyph-name="h" unicode="h" horiz-adv-x="588" 
d="M523 0h-134v291q0 59 -19 89t-70 31q-97 0 -97 -134v-277h-133v703h132v-240q49 63 143 63q178 0 178 -213v-313z" />
    <glyph glyph-name="i" unicode="i" horiz-adv-x="289" 
d="M212 0h-135v511h135v-511zM219 642q1 -31 -21 -53t-53 -22t-53 22t-22 53t22 53t53 22t53 -22t21 -53z" />
    <glyph glyph-name="j" unicode="j" horiz-adv-x="252" 
d="M174 -34q0 -83 -36 -130t-101 -47q-31 0 -59 9l-18 93q10 -2 21 -2q60 0 60 83v539h133v-545zM182 642q0 -31 -22 -53t-52 -22q-31 0 -53 22t-22 53t22 53t53 22q30 0 52 -22t22 -53z" />
    <glyph glyph-name="k" unicode="k" horiz-adv-x="572" 
d="M203 0h-133v703h133v-392l170 200h160l-167 -180l181 -331h-151l-124 231l-69 -79v-152z" />
    <glyph glyph-name="l" unicode="l" horiz-adv-x="275" 
d="M205 0h-135v703h135v-703z" />
    <glyph glyph-name="m" unicode="m" horiz-adv-x="889" 
d="M347 522q101 0 143 -86q52 86 158 86q171 0 171 -222v-300h-135v283q0 66 -18 95t-62 29q-92 0 -92 -137v-270h-134v287q0 58 -18 89t-63 31q-93 0 -93 -137v-270h-134v511h134v-58q42 69 143 69z" />
    <glyph glyph-name="n" unicode="n" horiz-adv-x="595" 
d="M303 408q-100 0 -100 -135v-273h-133v511h133v-56q52 68 144 68q178 0 178 -220v-303h-135v283q0 65 -20 95t-67 30z" />
    <glyph glyph-name="o" unicode="o" horiz-adv-x="598" 
d="M185 255q-1 -76 29 -119t85 -43t84 43t29 116q0 167 -114 167t-113 -164zM548 260q0 -120 -68 -198q-68 -76 -183 -76t-181 74t-66 194q0 122 67 196t183 75q116 -1 182 -73t66 -192z" />
    <glyph glyph-name="p" unicode="p" horiz-adv-x="585" 
d="M302 95q100 0 100 159t-100 159q-74 0 -100 -100v-152q14 -32 42 -49t58 -17zM535 254q1 -122 -53 -194t-142 -73q-88 0 -138 57v-244h-132v711h132v-49q52 61 142 61q90 1 140 -73t51 -196z" />
    <glyph glyph-name="q" unicode="q" horiz-adv-x="586" 
d="M284 95q80 0 100 102v157q-14 24 -44 42t-58 17q-99 0 -99 -159q0 -68 25 -114t76 -45zM50 228q0 296 210 295q76 0 124 -58v46h132v-711h-132v247q-52 -60 -140 -60q-88 1 -141 71t-53 170z" />
    <glyph glyph-name="r" unicode="r" horiz-adv-x="417" 
d="M290 408q-88 0 -88 -147v-261h-132v511h132v-57q54 68 144 68q31 0 56 -5l-48 -128q-20 19 -64 19z" />
    <glyph glyph-name="s" unicode="s" horiz-adv-x="500" 
d="M251 426q-70 0 -70 -45q0 -21 18 -33q19 -12 99 -36q80 -25 121 -62t41 -107q0 -69 -55 -113t-162 -44t-193 83l68 82q62 -62 138 -62q38 0 60 15t22 39q0 25 -21 37t-73 28t-64 22q-62 21 -92 53q-30 33 -30 101q0 67 57 104t129 37t118 -15t92 -53l-67 -84
q-66 53 -136 53z" />
    <glyph glyph-name="t" unicode="t" horiz-adv-x="408" 
d="M363 412h-109v-258q0 -29 10 -41t32 -12q24 0 66 19v-105q-50 -25 -117 -25t-95 38t-28 108v276h-77v99h77v192h132v-192h109v-99z" />
    <glyph glyph-name="u" unicode="u" horiz-adv-x="584" 
d="M514 0h-132v58q-47 -70 -144 -70q-178 1 -178 226v297h134v-283q0 -70 21 -98t67 -28q98 0 98 137v272h134v-511z" />
    <glyph glyph-name="v" unicode="v" horiz-adv-x="548" 
d="M518 511l-181 -511h-130l-177 511h142l100 -368l106 368h140z" />
    <glyph glyph-name="w" unicode="w" horiz-adv-x="772" 
d="M742 511l-148 -511h-122l-85 361l-86 -361h-120l-151 511h135l79 -339l83 339h122l83 -341l76 341h134z" />
    <glyph glyph-name="x" unicode="x" horiz-adv-x="558" 
d="M528 0h-147l-104 180l-104 -180h-143l172 266l-156 245h148l87 -159l89 159h143l-157 -242z" />
    <glyph glyph-name="y" unicode="y" horiz-adv-x="560" 
d="M164 -210q-43 0 -71 14v110q29 -18 49 -18q40 0 55 51l13 45l-180 519h142l105 -382l113 382h140l-229 -625q-15 -40 -55 -68t-82 -28z" />
    <glyph glyph-name="z" unicode="z" horiz-adv-x="474" 
d="M449 0h-424v86l252 318h-230v107h401v-86l-251 -317h252v-108z" />
    <glyph glyph-name="braceleft" unicode="{" horiz-adv-x="429" 
d="M150 491v99q0 120 56 164t183 46v-72q-69 -12 -91 -44t-22 -104v-63q0 -91 -18 -127t-75 -52q75 -22 87 -87q6 -35 6 -90v-96q0 -73 22 -105t91 -44v-72q-119 4 -164 32q-44 30 -59 70t-15 102v133q0 86 -81 117v82q80 20 80 111z" />
    <glyph glyph-name="bar" unicode="|" horiz-adv-x="249" 
d="M179 -218h-109v993h109v-993z" />
    <glyph glyph-name="braceright" unicode="}" horiz-adv-x="429" 
d="M278 181v-133q0 -124 -59 -162t-179 -42v72q68 12 90 44t22 105v96q0 117 41 151q20 16 53 26q-56 16 -74 52t-19 127v62q0 73 -22 105t-91 44v72q126 -2 182 -46t56 -164v-99q0 -47 18 -73t63 -38v-82q-81 -30 -81 -117z" />
    <glyph glyph-name="asciitilde" unicode="~" horiz-adv-x="626" 
d="M409 245q-43 0 -102 35t-86 35t-43 -14t-42 -58l-66 59q55 119 145 119q39 1 109 -37q6 -4 34 -18q27 -15 50 -15q23 -1 41 15t42 54l65 -59q-61 -116 -147 -116z" />
    <glyph glyph-name="nbspace" unicode="&#xa0;" horiz-adv-x="279" 
 />
    <glyph glyph-name="exclamdown" unicode="&#xa1;" horiz-adv-x="290" 
d="M211 -200h-130v293l25 192h80l25 -193v-292zM220 448q0 -30 -22 -52t-53 -22t-53 22t-22 52t22 52t53 22t53 -22t22 -52z" />
    <glyph glyph-name="cent" unicode="&#xa2;" horiz-adv-x="530" 
d="M342 -79h-101v128q-95 15 -143 87t-48 174t48 174t143 91v128h101v-125q95 -17 156 -106l-95 -62q-40 69 -103 69q-64 0 -92 -49t-28 -105q0 -57 10 -91t36 -60q28 -26 70 -26q69 0 109 72l95 -59q-59 -96 -158 -113v-127z" />
    <glyph glyph-name="sterling" unicode="&#xa3;" horiz-adv-x="624" 
d="M397 120q55 0 55 62q0 32 -40 58l100 61q27 -19 47 -58t20 -77q1 -78 -45 -122t-124 -44h-340v511q0 95 61 151t148 56t138 -20t91 -75l-96 -72q-22 25 -44 37t-63 12t-67 -26t-26 -71v-64h170v-105h-170v-214h185z" />
    <glyph glyph-name="currency" unicode="&#xa4;" horiz-adv-x="742" 
d="M240 354q0 -16 2 -42h231l-21 -64h-198q14 -50 43 -84q52 -61 135 -61t141 105q2 4 3 5l136 -49q0 -13 -35 -56q-48 -58 -105 -90q-57 -33 -140 -33q-140 0 -220 72t-105 190h-106l18 64h79q-1 14 -1 40v29h-97l21 65h84q23 125 106 200t199 75q217 0 299 -181
q-72 -28 -135 -49q-44 111 -153 111q-65 0 -109 -42t-62 -114h223l-21 -65h-211q-1 -10 -1 -26z" />
    <glyph glyph-name="yen" unicode="&#xa5;" horiz-adv-x="717" 
d="M588 372v-65h-145l-16 -25v-58h161v-65h-161v-159h-141v159h-157v65h157v57l-16 26h-141v65h101l-205 331h162l170 -306l172 306h163l-209 -331h105z" />
    <glyph glyph-name="brokenbar" unicode="&#xa6;" horiz-adv-x="314" 
d="M214 0h-114v263h114v-263zM214 440h-114v263h114v-263z" />
    <glyph glyph-name="section" unicode="&#xa7;" horiz-adv-x="636" 
d="M169 332q1 -28 25 -52q24 -23 59 -39t79 -35t67 -30q68 41 68 94q-1 53 -87 87l-22 9q-34 14 -115 52q-37 -20 -55 -39t-19 -47zM311 625q-76 0 -76 -49q0 -25 35 -43t124 -54q88 -36 140 -78t52 -117q0 -103 -108 -166q46 -40 46 -104t-54 -110t-163 -46t-219 80l63 86
q90 -64 177 -64q36 0 57 15t21 39t-24 42t-124 53q-208 73 -208 200q0 126 110 164q-44 44 -44 103q0 60 52 106t155 46q104 0 211 -76l-61 -86q-86 59 -162 59z" />
    <glyph glyph-name="dieresis" unicode="&#xa8;" horiz-adv-x="436" 
d="M177 662q-1 -26 -19 -45t-44 -19t-45 19t-19 45t19 45t45 19t44 -19t19 -45zM386 662q0 -26 -19 -45t-45 -19t-44 19t-19 45q1 26 19 45t44 19t45 -19t19 -45z" />
    <glyph glyph-name="copyright" unicode="&#xa9;" horiz-adv-x="837" 
d="M428 130q-98 0 -156 63q-56 63 -56 159t58 160t159 64t160 -90l-68 -49q-43 59 -99 59t-90 -40q-33 -40 -33 -102q-1 -62 33 -103q34 -40 92 -40t100 57l65 -50h1q-68 -88 -166 -88zM420 665q-134 1 -223 -89q-90 -90 -90 -224t89 -224q88 -90 222 -90t223 89t89 224
q0 134 -88 224t-222 90zM777 352q-1 -152 -103 -256q-102 -103 -254 -103q-152 -1 -256 101t-104 256t104 258q104 102 256 102t254 -103t103 -255z" />
    <glyph glyph-name="ordfeminine" unicode="&#xaa;" horiz-adv-x="475" 
d="M148 448q0 -52 62 -52q30 0 60 16t37 38v53q-14 9 -60 9q-45 0 -72 -20t-27 -44zM425 336h-73q-20 0 -32 12t-13 29q-46 -49 -115 -49q-70 0 -106 34t-36 84t48 88t139 39q33 0 70 -6l1 24v1q0 58 -67 58t-101 -44l-61 37q29 41 65 57t109 16q72 0 114 -34t42 -83v-218
q0 -13 16 -13v-32z" />
    <glyph glyph-name="guillemotleft" unicode="&#xab;" horiz-adv-x="576" 
d="M306 69h-109l-152 212l170 238l91 -25l-154 -213zM531 69h-109l-152 212l170 238l91 -25l-154 -213z" />
    <glyph glyph-name="logicalnot" unicode="&#xac;" horiz-adv-x="636" 
d="M475 130v135h-435v105h546l-1 -240h-110z" />
    <glyph glyph-name="registered" unicode="&#xae;" horiz-adv-x="838" 
d="M355 501v-113h72q80 0 80 58q-1 55 -85 55h-67zM400 320h-45v-175h-84v424h159q161 0 161 -120q0 -84 -86 -110q14 -7 30 -34t22 -61t39 -99h-96q-24 47 -30 83t-26 64t-44 28zM420 665q-133 1 -223 -89t-90 -224t90 -224t222 -90q131 0 221 89t90 223t-88 225
q-89 90 -222 90zM778 351h-1q0 -153 -103 -255t-254 -103q-152 -1 -256 101t-104 256t104 258q104 102 256 102t255 -104t103 -255z" />
    <glyph glyph-name="macron" unicode="&#xaf;" horiz-adv-x="450" 
d="M380 604h-310v85h310v-85z" />
    <glyph glyph-name="degree" unicode="&#xb0;" horiz-adv-x="462" 
d="M319 547h1q0 40 -26 66t-63 26t-63 -26t-26 -66q0 -41 26 -67t63 -26q38 0 63 26t25 67zM412 547q0 -77 -52 -130t-129 -53t-129 53t-52 130t52 129t129 53q77 -1 129 -53t52 -129z" />
    <glyph glyph-name="twosuperior" unicode="&#xb2;" horiz-adv-x="534" 
d="M474 562q0 -66 -26 -103t-102 -79t-106 -75h232v-114h-411q2 104 50 152t66 62q19 14 71 46t68 51q16 18 15 38t-17 38t-57 17q-41 0 -91 -62l-100 49q62 129 214 129q82 0 138 -41q56 -42 56 -108z" />
    <glyph glyph-name="threesuperior" unicode="&#xb3;" horiz-adv-x="529" 
d="M468 346q0 -81 -55 -122t-146 -41q-156 0 -219 114l102 56q34 -61 107 -61t73 54t-74 53h-68v105h62q67 0 67 52q1 52 -61 51q-62 0 -93 -61l-98 51q41 116 199 116q88 0 137 -39q49 -40 49 -90q0 -99 -70 -128q36 -10 62 -42t26 -68z" />
    <glyph glyph-name="acute" unicode="&#xb4;" horiz-adv-x="352" 
d="M302 733l-160 -149h-92l91 149h161z" />
    <glyph glyph-name="mu" unicode="&#xb5;" horiz-adv-x="594" 
d="M269 -13q-48 0 -69 29v-216h-130v711h130v-283q0 -69 22 -100t70 -31q102 0 102 141v273h130v-511h-127v65q-20 -43 -50 -61t-78 -17z" />
    <glyph glyph-name="mu" unicode="&#x3bc;" horiz-adv-x="594" 
d="M269 -13q-48 0 -69 29v-216h-130v711h130v-283q0 -69 22 -100t70 -31q102 0 102 141v273h130v-511h-127v65q-20 -43 -50 -61t-78 -17z" />
    <glyph glyph-name="paragraph" unicode="&#xb6;" horiz-adv-x="651" 
d="M581 625h-20v-825h-87v825h-106v-825h-87v484h-12q-85 0 -147 62t-62 148t62 148t147 61h312v-78z" />
    <glyph glyph-name="periodcentered" unicode="&#xb7;" horiz-adv-x="270" 
d="M210 350q0 -30 -22 -52t-53 -22t-53 22t-22 52t22 52t53 22t53 -22t22 -52z" />
    <glyph glyph-name="cedilla" unicode="&#xb8;" horiz-adv-x="350" 
d="M154 -160q42 0 41 33q-1 11 -9 19t-24 9q-16 0 -30 -10l-34 11l44 105h52l-26 -64q18 7 44 7t47 -19t21 -57t-34 -59t-79 -21t-97 20l10 41q32 -15 74 -15z" />
    <glyph glyph-name="onesuperior" unicode="&#xb9;" horiz-adv-x="355" 
d="M272 191h-136v345q-20 -5 -88 -5v105q53 0 77 16t24 51h123v-512z" />
    <glyph glyph-name="ordmasculine" unicode="&#xba;" horiz-adv-x="497" 
d="M248 402q93 0 93 122t-93 121q-93 0 -93 -122q0 -57 24 -89t69 -32zM447 526q-1 -87 -53 -142t-144 -55q-92 1 -146 53t-54 140t55 142t146 54t143 -52t53 -140z" />
    <glyph glyph-name="guillemotright" unicode="&#xbb;" horiz-adv-x="576" 
d="M306 281l-152 -212h-109l154 212l-154 213l91 25zM531 281l-152 -212h-109l154 212l-154 213l91 25z" />
    <glyph glyph-name="onequarter" unicode="&#xbc;" horiz-adv-x="1024" 
d="M790 209v128l-97 -128h97zM272 191h-136v345q-20 -5 -88 -5v105q53 0 77 16t24 51h123v-512zM715 709l-379 -719l-90 5l379 719zM978 103h-52v-103h-136v103h-234v104l231 305h139v-299h52v-110z" />
    <glyph glyph-name="onehalf" unicode="&#xbd;" horiz-adv-x="1092" 
d="M272 191h-136v345q-20 -5 -88 -5v105q53 0 77 16t24 51h123v-512zM718 709l-380 -719l-90 5l380 719zM1035 372q0 -66 -25 -104q-26 -38 -102 -80t-106 -75h232v-113h-411q2 104 50 152q49 48 67 62t69 46t67 50t16 39q0 19 -16 37t-58 18t-90 -62l-100 49
q62 129 214 129q82 0 138 -41t55 -107z" />
    <glyph glyph-name="threequarters" unicode="&#xbe;" horiz-adv-x="1167" 
d="M933 209v128l-97 -128h97zM468 346q0 -81 -55 -122t-146 -41q-156 0 -219 114l102 56q34 -61 107 -61t73 54t-74 53h-68v105h62q67 0 67 52q1 52 -61 51q-62 0 -93 -61l-98 51q41 116 199 116q88 0 137 -39q49 -40 49 -90q0 -99 -70 -128q36 -10 62 -42t26 -68zM856 709
l-379 -719l-90 5l379 719zM1122 103h-52v-103h-137v103h-233v104l230 305h140v-299h52v-110z" />
    <glyph glyph-name="questiondown" unicode="&#xbf;" horiz-adv-x="571" 
d="M277 -208q-109 0 -173 52t-64 124t26 110t72 72q48 34 62 46q42 37 42 98h123q0 -65 -23 -108t-91 -93q-67 -49 -73 -71q-7 -21 -7 -47q1 -25 31 -51t83 -26q109 0 151 102l95 -68q-76 -140 -254 -140zM376 448q0 -30 -22 -52t-53 -22t-53 22t-22 52t22 52t53 22t53 -22
t22 -52z" />
    <glyph glyph-name="Agrave" unicode="&#xc0;" horiz-adv-x="732" 
d="M464 262l-97 300l-99 -300h196zM702 0h-151l-52 153h-266l-52 -153h-151l264 703h148zM441 762h-92l-160 150h161z" />
    <glyph glyph-name="Aacute" unicode="&#xc1;" horiz-adv-x="732" 
d="M464 262l-97 300l-99 -300h196zM702 0h-151l-52 153h-266l-52 -153h-151l264 703h148zM538 912l-160 -150h-92l91 150h161z" />
    <glyph glyph-name="Acircumflex" unicode="&#xc2;" horiz-adv-x="732" 
d="M464 262l-97 300l-99 -300h196zM702 0h-151l-52 153h-266l-52 -153h-151l264 703h148zM542 762h-95l-81 75l-78 -75h-93l122 149h102z" />
    <glyph glyph-name="Atilde" unicode="&#xc3;" horiz-adv-x="732" 
d="M464 262l-97 300l-99 -300h196zM702 0h-151l-52 153h-266l-52 -153h-151l264 703h148zM296 830q-28 0 -36 -47l-74 2q3 54 30 91q28 37 72 37t92 -25t59 -25q30 0 38 47h24l50 -2q-14 -129 -107 -129q-38 -1 -86 25t-62 26z" />
    <glyph glyph-name="Adieresis" unicode="&#xc4;" horiz-adv-x="732" 
d="M464 262l-97 300l-99 -300h196zM702 0h-151l-52 153h-266l-52 -153h-151l264 703h148zM328 828q0 -26 -19 -45t-45 -19t-45 19t-19 45t19 44t45 19q26 -1 45 -19t19 -44zM536 828q0 -26 -18 -45t-46 -19q-26 0 -44 19t-19 45q1 26 19 44t44 19q26 -1 46 -19
q18 -18 18 -44z" />
    <glyph glyph-name="Aring" unicode="&#xc5;" horiz-adv-x="732" 
d="M464 262l-97 300l-99 -300h196zM419 844q-1 24 -15 38t-36 14t-36 -14t-15 -38q1 -24 15 -38t36 -14t36 14t15 38zM702 0h-151l-52 153h-266l-52 -153h-151l264 703h148zM480 844q0 -47 -32 -79t-80 -32t-80 32t-32 79t32 79t80 32t80 -32t32 -79z" />
    <glyph glyph-name="AE" unicode="&#xc6;" horiz-adv-x="1065" 
d="M524 248v312l-187 -312h187zM1030 0h-506v140h-252l-85 -140h-157l452 703h529v-113h-355v-167h270v-112h-270v-199h374v-112z" />
    <glyph glyph-name="Ccedilla" unicode="&#xc7;" horiz-adv-x="702" 
d="M193 354q0 -110 47 -180q46 -70 138 -70t140 89l117 -74q-85 -129 -250 -135l-19 -40q24 10 51 10t47 -20t21 -56q0 -37 -32 -61q-31 -24 -77 -24t-102 21l9 41q35 -15 63 -15q54 0 54 34q0 29 -33 29q-15 0 -32 -10l-34 8q5 13 35 85q-138 14 -212 118t-74 256t87 256
t238 104q105 0 177 -48t110 -133l-135 -49q-44 111 -153 111q-85 -1 -133 -69t-48 -178z" />
    <glyph glyph-name="Egrave" unicode="&#xc8;" horiz-adv-x="614" 
d="M584 0h-514v703h495v-113h-355v-167h270v-112h-270v-199h374v-112zM431 762h-92l-160 150h161z" />
    <glyph glyph-name="Eacute" unicode="&#xc9;" horiz-adv-x="614" 
d="M584 0h-514v703h495v-113h-355v-167h270v-112h-270v-199h374v-112zM528 912l-160 -150h-92l91 150h161z" />
    <glyph glyph-name="Ecircumflex" unicode="&#xca;" horiz-adv-x="614" 
d="M584 0h-514v703h495v-113h-355v-167h270v-112h-270v-199h374v-112zM512 762h-95l-81 75l-78 -75h-94l122 149h102z" />
    <glyph glyph-name="Edieresis" unicode="&#xcb;" horiz-adv-x="614" 
d="M584 0h-514v703h495v-113h-355v-167h270v-112h-270v-199h374v-112zM287 828q-1 -26 -19 -45t-44 -19t-45 19t-19 45t19 44t45 19q26 -1 44 -19t19 -44zM496 828q0 -26 -19 -45t-45 -19t-44 19t-19 45q1 26 19 44t44 19q26 -1 45 -19t19 -44z" />
    <glyph glyph-name="Igrave" unicode="&#xcc;" horiz-adv-x="280" 
d="M212 0h-140v703h140v-703zM216 762h-92l-160 150h161z" />
    <glyph glyph-name="Iacute" unicode="&#xcd;" horiz-adv-x="280" 
d="M212 0h-140v703h140v-703zM325 912l-160 -150h-92l91 150h161z" />
    <glyph glyph-name="Icircumflex" unicode="&#xce;" horiz-adv-x="280" 
d="M212 0h-140v703h140v-703zM319 762h-95l-81 75l-78 -75h-93l122 149h102z" />
    <glyph glyph-name="Idieresis" unicode="&#xcf;" horiz-adv-x="280" 
d="M212 0h-140v703h140v-703zM105 828q0 -26 -19 -45t-45 -19q-27 0 -45 19t-18 45t18 44t45 19q26 -1 45 -19t19 -44zM313 828q-1 -26 -19 -45t-44 -19t-45 19t-19 45t19 44t45 19q26 -1 44 -19t19 -44z" />
    <glyph glyph-name="Eth" unicode="&#xd0;" horiz-adv-x="725" 
d="M526 344q0 112 -56 178t-157 65h-93v-169h150v-101h-150v-202h87q115 0 167 58q52 59 52 171zM669 355q0 -355 -368 -355h-219v317h-62v101h62v285h214q373 0 373 -348z" />
    <glyph glyph-name="Ntilde" unicode="&#xd1;" horiz-adv-x="739" 
d="M669 0h-141l-318 501v-501h-140v703h143l316 -498v498h140v-703zM456 779q-42 -1 -92 25t-63 26q-28 0 -36 -47l-74 2q3 54 31 91t70 37q44 0 92 -25t60 -25q30 0 38 47h24l50 -2q-5 -56 -32 -92q-26 -36 -68 -37z" />
    <glyph glyph-name="Ograve" unicode="&#xd2;" 
d="M555 362q1 56 -17 110t-60 92t-116 37q-73 -1 -121 -69t-48 -178t47 -180t135 -70q131 0 169 158q10 44 11 100zM373 -16q-106 0 -181 53q-142 100 -142 314q0 161 87 265t238 104q106 0 181 -52q143 -99 142 -315q-2 -216 -144 -316q-76 -53 -181 -53zM438 762h-92
l-160 150h161z" />
    <glyph glyph-name="Oacute" unicode="&#xd3;" 
d="M555 362q1 56 -17 110t-60 92t-116 37q-73 -1 -121 -69t-48 -178t47 -180t135 -70q131 0 169 158q10 44 11 100zM373 -16q-106 0 -181 53q-142 100 -142 314q0 161 87 265t238 104q106 0 181 -52q143 -99 142 -315q-2 -216 -144 -316q-76 -53 -181 -53zM565 912
l-160 -150h-92l91 150h161z" />
    <glyph glyph-name="Ocircumflex" unicode="&#xd4;" 
d="M555 362q1 56 -17 110t-60 92t-116 37q-73 -1 -121 -69t-48 -178t47 -180t135 -70q131 0 169 158q10 44 11 100zM373 -16q-106 0 -181 53q-142 100 -142 314q0 161 87 265t238 104q106 0 181 -52q143 -99 142 -315q-2 -216 -144 -316q-76 -53 -181 -53zM548 762h-95
l-80 75l-79 -75h-93l122 149h102z" />
    <glyph glyph-name="Otilde" unicode="&#xd5;" 
d="M555 362q1 56 -17 110t-60 92t-116 37q-73 -1 -121 -69t-48 -178t47 -180t135 -70q131 0 169 158q10 44 11 100zM373 -16q-106 0 -181 53q-142 100 -142 314q0 161 87 265t238 104q106 0 181 -52q143 -99 142 -315q-2 -216 -144 -316q-76 -53 -181 -53zM457 779
q-41 -1 -91 25t-64 26q-28 0 -36 -47l-74 2q2 53 30 91t72 37q44 0 92 -25q47 -25 59 -25q30 0 38 47h24l50 -2q-5 -57 -31 -93t-69 -36z" />
    <glyph glyph-name="Odieresis" unicode="&#xd6;" 
d="M555 362q1 56 -17 110t-60 92t-116 37q-73 -1 -121 -69t-48 -178t47 -180t135 -70q131 0 169 158q10 44 11 100zM373 -16q-106 0 -181 53q-142 100 -142 314q0 161 87 265t238 104q106 0 181 -52q143 -99 142 -315q-2 -216 -144 -316q-76 -53 -181 -53zM334 828
q0 -26 -18 -45t-46 -19q-26 0 -44 19t-19 45q1 26 19 44t44 19q26 -1 46 -19q18 -18 18 -44zM543 828q0 -26 -19 -45t-45 -19t-45 19t-19 45t19 44t45 19q26 -1 45 -19t19 -44z" />
    <glyph glyph-name="multiply" unicode="&#xd7;" horiz-adv-x="629" 
d="M569 138l-76 -76l-179 179l-179 -179l-75 76l179 179l-179 179l75 75l179 -179l179 179l76 -75l-179 -179z" />
    <glyph glyph-name="Oslash" unicode="&#xd8;" 
d="M374 600q-85 0 -133 -68t-48 -176q0 -106 40 -171l238 384q-42 31 -97 31zM555 370q0 82 -39 147l-238 -383q41 -30 99 -30q59 0 101 38t60 92t17 136zM379 -16q-100 0 -169 41l-38 -60l-66 16l51 83q-107 103 -107 276t87 276t238 103q93 0 164 -41l37 60l67 -16
l-52 -83q108 -101 108 -284q-2 -217 -145 -318q-75 -53 -175 -53z" />
    <glyph glyph-name="Ugrave" unicode="&#xd9;" horiz-adv-x="678" 
d="M623 325q1 -251 -147 -315q-56 -24 -136 -25q-159 0 -222 88t-63 239v391h140v-419q0 -84 32 -132q33 -48 113 -48t112 46t31 129v424h140v-378zM406 762h-92l-160 150h161z" />
    <glyph glyph-name="Uacute" unicode="&#xda;" horiz-adv-x="678" 
d="M623 325q1 -251 -147 -315q-56 -24 -136 -25q-159 0 -222 88t-63 239v391h140v-419q0 -84 32 -132q33 -48 113 -48t112 46t31 129v424h140v-378zM533 912l-160 -150h-92l91 150h161z" />
    <glyph glyph-name="Ucircumflex" unicode="&#xdb;" horiz-adv-x="678" 
d="M623 325q1 -251 -147 -315q-56 -24 -136 -25q-159 0 -222 88t-63 239v391h140v-419q0 -84 32 -132q33 -48 113 -48t112 46t31 129v424h140v-378zM512 762h-95l-81 75l-78 -75h-93l122 149h102z" />
    <glyph glyph-name="Udieresis" unicode="&#xdc;" horiz-adv-x="678" 
d="M623 325q1 -251 -147 -315q-56 -24 -136 -25q-159 0 -222 88t-63 239v391h140v-419q0 -84 32 -132q33 -48 113 -48t112 46t31 129v424h140v-378zM298 828q0 -26 -19 -45t-45 -19t-45 19t-19 45t19 44t45 19q26 -1 45 -19t19 -44zM506 828q0 -26 -18 -45t-46 -19
q-26 0 -44 19t-19 45q1 26 19 44t44 19q26 -1 46 -19q18 -18 18 -44z" />
    <glyph glyph-name="Yacute" unicode="&#xdd;" horiz-adv-x="701" 
d="M417 0h-141v281l-261 422h162l170 -306l172 306h163l-265 -421v-282zM547 912l-160 -150h-92l91 150h161z" />
    <glyph glyph-name="Thorn" unicode="&#xde;" horiz-adv-x="667" 
d="M503 374h1q0 63 -36 87t-104 24h-146v-223h138q147 0 147 112zM643 377q-1 -171 -171 -213q-48 -12 -105 -11h-149v-153h-139v703h139v-109h163q262 0 262 -217z" />
    <glyph glyph-name="germandbls" unicode="&#xdf;" horiz-adv-x="592" 
d="M258 436q110 0 110 88t-82 87q-82 0 -82 -132v-547l-134 -29v566q0 245 220 245q90 0 148 -47t58 -141t-82 -129q128 -34 128 -187q0 -104 -60 -161t-165 -57q-33 0 -61 14v108q27 -18 51 -18q103 0 103 114q0 57 -40 93t-112 36v97z" />
    <glyph glyph-name="agrave" unicode="&#xe0;" horiz-adv-x="581" 
d="M302 239q-50 0 -88 -24q-38 -23 -39 -57t21 -52t56 -19q34 1 68 19t49 52v68q-17 13 -67 13zM278 428q-72 0 -110 -62l-88 48q32 54 82 82t138 28q200 0 200 -179v-270q0 -22 31 -22v-53h-92q-64 0 -69 51q-50 -62 -140 -62q-90 1 -135 45t-45 122t65 125t173 47
q42 0 81 -7v31q2 76 -91 76zM364 584h-92l-160 149h161z" />
    <glyph glyph-name="aacute" unicode="&#xe1;" horiz-adv-x="581" 
d="M302 239q-50 0 -88 -24q-38 -23 -39 -57t21 -52t56 -19q34 1 68 19t49 52v68q-17 13 -67 13zM278 428q-72 0 -110 -62l-88 48q32 54 82 82t138 28q200 0 200 -179v-270q0 -22 31 -22v-53h-92q-64 0 -69 51q-50 -62 -140 -62q-90 1 -135 45t-45 122t65 125t173 47
q42 0 81 -7v31q2 76 -91 76zM478 733l-160 -149h-92l91 149h161z" />
    <glyph glyph-name="acircumflex" unicode="&#xe2;" horiz-adv-x="581" 
d="M302 239q-50 0 -88 -24q-38 -23 -39 -57t21 -52t56 -19q34 1 68 19t49 52v68q-17 13 -67 13zM278 428q-72 0 -110 -62l-88 48q32 54 82 82t138 28q200 0 200 -179v-270q0 -22 31 -22v-53h-92q-64 0 -69 51q-50 -62 -140 -62q-90 1 -135 45t-45 122t65 125t173 47
q42 0 81 -7v31q2 76 -91 76zM464 581h-95l-81 75l-78 -75h-94l122 149h102z" />
    <glyph glyph-name="atilde" unicode="&#xe3;" horiz-adv-x="581" 
d="M302 239q-50 0 -88 -24q-38 -23 -39 -57t21 -52t56 -19q34 1 68 19t49 52v68q-17 13 -67 13zM278 428q-72 0 -110 -62l-88 48q32 54 82 82t138 28q200 0 200 -179v-270q0 -22 31 -22v-53h-92q-64 0 -69 51q-50 -62 -140 -62q-90 1 -135 45t-45 122t65 125t173 47
q42 0 81 -7v31q2 76 -91 76zM370 587q-40 -1 -90 25t-64 26q-29 0 -37 -47l-74 2q3 53 31 91t70 38t92 -26q48 -26 60 -25q30 0 39 48l74 -3q-6 -56 -33 -92t-68 -37z" />
    <glyph glyph-name="adieresis" unicode="&#xe4;" horiz-adv-x="581" 
d="M302 239q-50 0 -88 -24q-38 -23 -39 -57t21 -52t56 -19q34 1 68 19t49 52v68q-17 13 -67 13zM278 428q-72 0 -110 -62l-88 48q32 54 82 82t138 28q200 0 200 -179v-270q0 -22 31 -22v-53h-92q-64 0 -69 51q-50 -62 -140 -62q-90 1 -135 45t-45 122t65 125t173 47
q42 0 81 -7v31q2 76 -91 76zM236 662q0 -26 -19 -45t-45 -19t-44 19t-19 45q1 26 19 45t44 19t45 -19t19 -45zM444 662q0 -26 -18 -45t-45 -19q-26 0 -45 19t-19 45t19 45t45 19q27 0 45 -19t18 -45z" />
    <glyph glyph-name="aring" unicode="&#xe5;" horiz-adv-x="581" 
d="M302 239q-50 0 -88 -24q-38 -23 -39 -57t21 -52t56 -19q34 1 68 19t49 52v68q-17 13 -67 13zM290 745q-22 -1 -36 -15t-15 -37q1 -23 15 -38t36 -15t36 15t15 37q-1 23 -15 38t-36 15zM278 428q-72 0 -110 -62l-88 48q32 54 82 82t138 28q200 0 200 -179v-270
q0 -22 31 -22v-53h-92q-64 0 -69 51q-50 -62 -140 -62q-90 1 -135 45t-45 122t65 125t173 47q42 0 81 -7v31q2 76 -91 76zM403 692q0 -46 -33 -78t-80 -33q-48 0 -80 32t-32 79q0 48 32 80t80 32q47 0 80 -32q33 -34 33 -80z" />
    <glyph glyph-name="ae" unicode="&#xe6;" horiz-adv-x="898" 
d="M302 242q-50 0 -91 -25q-40 -25 -40 -60q1 -35 23 -55t56 -20q94 0 131 88q-7 27 -9 59q-20 13 -70 13zM610 429q-48 -1 -76 -33t-34 -87h221q-13 120 -111 120zM499 227q5 -140 130 -140q68 0 123 63l82 -64q-84 -100 -218 -100t-199 100q-73 -97 -201 -97
q-76 0 -121 44q-45 43 -45 121t64 125t174 47q32 0 85 -7v34q1 80 -87 80t-125 -60l-84 46q31 53 82 79t149 26t149 -53q63 54 167 54t164 -78t60 -201q0 -4 -3 -19h-346z" />
    <glyph glyph-name="ccedilla" unicode="&#xe7;" horiz-adv-x="541" 
d="M312 -127q0 28 -32 28q-15 0 -32 -10l-34 11l41 87q-97 11 -151 83t-54 191t68 191t187 72t195 -112l-99 -66q-37 70 -96 70t-89 -43t-31 -115q0 -72 27 -120q27 -46 74 -46t70 18t47 58l98 -62q-70 -115 -196 -121l-21 -44q19 7 45 7t47 -19t21 -57t-34 -59t-80 -21
t-96 20l10 41q31 -15 60 -15q55 0 55 33z" />
    <glyph glyph-name="egrave" unicode="&#xe8;" horiz-adv-x="572" 
d="M292 424q-92 0 -108 -112h212q-12 112 -104 112zM183 224q7 -132 125 -132q64 0 122 63l85 -66q-85 -103 -209 -103t-190 74t-66 198q0 123 68 195t178 72q112 0 172 -78t59 -201q0 -7 -3 -22h-341zM356 584h-91l-160 149h161z" />
    <glyph glyph-name="eacute" unicode="&#xe9;" horiz-adv-x="572" 
d="M292 424q-92 0 -108 -112h212q-12 112 -104 112zM183 224q7 -132 125 -132q64 0 122 63l85 -66q-85 -103 -209 -103t-190 74t-66 198q0 123 68 195t178 72q112 0 172 -78t59 -201q0 -7 -3 -22h-341zM476 733l-160 -149h-92l91 149h161z" />
    <glyph glyph-name="ecircumflex" unicode="&#xea;" horiz-adv-x="572" 
d="M292 424q-92 0 -108 -112h212q-12 112 -104 112zM183 224q7 -132 125 -132q64 0 122 63l85 -66q-85 -103 -209 -103t-190 74t-66 198q0 123 68 195t178 72q112 0 172 -78t59 -201q0 -7 -3 -22h-341zM464 579l-95 -1l-80 75l-79 -75h-93l122 150h102z" />
    <glyph glyph-name="edieresis" unicode="&#xeb;" horiz-adv-x="572" 
d="M292 424q-92 0 -108 -112h212q-12 112 -104 112zM183 224q7 -132 125 -132q64 0 122 63l85 -66q-85 -103 -209 -103t-190 74t-66 198q0 123 68 195t178 72q112 0 172 -78t59 -201q0 -7 -3 -22h-341zM235 662q-1 -26 -19 -45t-44 -19t-46 19q-18 19 -18 45t18 45t46 19
q26 0 44 -19t19 -45zM444 662q0 -26 -19 -45t-45 -19t-45 19t-19 45t19 45t45 19t45 -19t19 -45z" />
    <glyph glyph-name="igrave" unicode="&#xec;" horiz-adv-x="289" 
d="M195 0h-135v511h135v-511zM197 584h-92l-160 149h161z" />
    <glyph glyph-name="iacute" unicode="&#xed;" horiz-adv-x="289" 
d="M201 0h-134v511h134v-511zM328 733l-160 -149h-92l91 149h161z" />
    <glyph glyph-name="icircumflex" unicode="&#xee;" horiz-adv-x="289" 
d="M194 0h-134v511h134v-511zM307 576h-95l-81 75l-78 -75h-94l122 149h102z" />
    <glyph glyph-name="idieresis" unicode="&#xef;" horiz-adv-x="289" 
d="M195 0h-135v511h135v-511zM91 662q-1 -26 -19 -45t-44 -19t-46 19q-18 19 -18 45t18 45t46 19q26 0 44 -19t19 -45zM300 662q0 -26 -19 -45t-45 -19t-45 19t-19 45t19 45t45 19t45 -19t19 -45z" />
    <glyph glyph-name="eth" unicode="&#xf0;" horiz-adv-x="617" 
d="M422 220q0 169 -111 170q-116 0 -116 -149q1 -69 29 -108t82 -39t84 40q32 38 32 86zM560 254q0 -108 -64 -188q-64 -79 -182 -79t-188 77q-70 78 -69 192q0 114 68 177t157 63t141 -49q-26 64 -77 110l-91 -48l-37 59l63 34q-37 18 -77 26l30 85q79 -18 143 -61l84 44
l37 -59l-64 -34q126 -129 126 -349z" />
    <glyph glyph-name="ntilde" unicode="&#xf1;" horiz-adv-x="595" 
d="M303 408q-100 0 -100 -135v-273h-133v511h133v-56q52 68 144 68q178 0 178 -220v-303h-135v283q0 65 -20 95t-67 30zM380 587q-41 -1 -91 25t-63 26q-29 0 -37 -47l-74 2q3 53 31 91t70 38t92 -26q48 -26 60 -25q30 0 39 48l74 -3q-6 -56 -33 -92t-68 -37z" />
    <glyph glyph-name="ograve" unicode="&#xf2;" horiz-adv-x="598" 
d="M185 255q-1 -76 29 -119t85 -43t84 43t29 116q0 167 -114 167t-113 -164zM548 260q0 -120 -68 -198q-68 -76 -183 -76t-181 74t-66 194q0 122 67 196t183 75q116 -1 182 -73t66 -192zM364 584h-92l-160 149h161z" />
    <glyph glyph-name="oacute" unicode="&#xf3;" horiz-adv-x="598" 
d="M185 255q-1 -76 29 -119t85 -43t84 43t29 116q0 167 -114 167t-113 -164zM548 260q0 -120 -68 -198q-68 -76 -183 -76t-181 74t-66 194q0 122 67 196t183 75q116 -1 182 -73t66 -192zM486 733l-160 -149h-92l91 149h161z" />
    <glyph glyph-name="ocircumflex" unicode="&#xf4;" horiz-adv-x="598" 
d="M185 255q-1 -76 29 -119t85 -43t84 43t29 116q0 167 -114 167t-113 -164zM548 260q0 -120 -68 -198q-68 -76 -183 -76t-181 74t-66 194q0 122 67 196t183 75q116 -1 182 -73t66 -192zM474 579l-95 -1l-80 75l-79 -75h-93l122 150h102z" />
    <glyph glyph-name="otilde" unicode="&#xf5;" horiz-adv-x="598" 
d="M185 255q-1 -76 29 -119t85 -43t84 43t29 116q0 167 -114 167t-113 -164zM548 260q0 -120 -68 -198q-68 -76 -183 -76t-181 74t-66 194q0 122 67 196t183 75q116 -1 182 -73t66 -192zM381 587q-41 -1 -91 25t-63 26q-28 0 -36 -47l-74 2q3 53 31 91t70 38t91 -26t61 -25
q31 0 38 48l74 -3q-6 -56 -33 -92t-68 -37z" />
    <glyph glyph-name="odieresis" unicode="&#xf6;" horiz-adv-x="598" 
d="M185 255q-1 -76 29 -119t85 -43t84 43t29 116q0 167 -114 167t-113 -164zM548 260q0 -120 -68 -198q-68 -76 -183 -76t-181 74t-66 194q0 122 67 196t183 75q116 -1 182 -73t66 -192zM259 662q0 -26 -19 -45t-45 -19t-45 19t-19 45t19 45t45 19t45 -19t19 -45zM467 662
q-1 -26 -19 -45t-44 -19t-46 19q-18 19 -18 45t18 45t46 19q26 0 44 -19t19 -45z" />
    <glyph glyph-name="divide" unicode="&#xf7;" horiz-adv-x="647" 
d="M398 76q0 -30 -22 -52t-52 -22q-31 0 -53 22t-22 52t22 52t53 22q30 0 52 -22t22 -52zM607 264h-567v107h567v-107zM398 558q0 -30 -22 -52t-52 -21q-31 -1 -53 21t-22 52t22 53q22 22 53 22q30 0 52 -22q22 -23 22 -53z" />
    <glyph glyph-name="oslash" unicode="&#xf8;" horiz-adv-x="598" 
d="M300 424h-1q-63 0 -91 -48t-28 -118t25 -114l140 271q-19 9 -45 9zM417 251q0 73 -24 118l-140 -271q19 -9 45 -9q58 1 88 45t31 117zM548 273q0 -135 -67 -211t-185 -75q-46 0 -93 15l-21 -41l-64 15l29 56q-97 72 -97 208t67 211t183 75q50 0 95 -16l21 42l64 -16
l-29 -56q97 -72 97 -207z" />
    <glyph glyph-name="ugrave" unicode="&#xf9;" horiz-adv-x="584" 
d="M514 0h-132v58q-47 -70 -144 -70q-178 1 -178 226v297h134v-283q0 -70 21 -98t67 -28q98 0 98 137v272h134v-511zM351 584h-92l-160 149h161z" />
    <glyph glyph-name="uacute" unicode="&#xfa;" horiz-adv-x="584" 
d="M514 0h-132v58q-47 -70 -144 -70q-178 1 -178 226v297h134v-283q0 -70 21 -98t67 -28q98 0 98 137v272h134v-511zM474 733l-159 -149h-92l91 149h160z" />
    <glyph glyph-name="ucircumflex" unicode="&#xfb;" horiz-adv-x="584" 
d="M514 0h-132v58q-47 -70 -144 -70q-178 1 -178 226v297h134v-283q0 -70 21 -98t67 -28q98 0 98 137v272h134v-511zM463 584l-95 -1l-81 75l-78 -75h-93l122 150h102z" />
    <glyph glyph-name="udieresis" unicode="&#xfc;" horiz-adv-x="584" 
d="M514 0h-132v58q-47 -70 -144 -70q-178 1 -178 226v297h134v-283q0 -70 21 -98t67 -28q98 0 98 137v272h134v-511zM244 662q0 -26 -19 -45t-45 -19t-44 19t-19 45q1 26 19 45t44 19t45 -19t19 -45zM452 662q0 -26 -18 -45t-45 -19q-26 0 -45 19t-19 45t19 45t45 19
q27 0 45 -19t18 -45z" />
    <glyph glyph-name="yacute" unicode="&#xfd;" horiz-adv-x="556" 
d="M162 -210q-43 0 -71 14v110q29 -18 49 -18q40 0 55 51l13 45l-180 519h142l105 -382l113 382h140l-229 -625q-15 -40 -55 -68t-82 -28zM470 728l-160 -149h-92l91 149h161z" />
    <glyph glyph-name="thorn" unicode="&#xfe;" horiz-adv-x="581" 
d="M310 96q100 0 100 159t-100 159q-73 2 -100 -100v-152q14 -32 42 -49t58 -17zM543 255q1 -122 -53 -195t-142 -73t-138 58v-245h-132v903h132v-240q52 61 142 61t140 -74q51 -74 51 -195z" />
    <glyph glyph-name="ydieresis" unicode="&#xff;" horiz-adv-x="560" 
d="M164 -210q-43 0 -71 14v110q29 -18 49 -18q40 0 55 51l13 45l-180 519h142l105 -382l113 382h140l-229 -625q-15 -40 -55 -68t-82 -28zM240 662q0 -26 -19 -45t-45 -19t-45 19t-19 45t19 45t45 19t45 -19t19 -45zM448 662q0 -26 -18 -45t-46 -19q-26 0 -44 19t-19 45
q1 26 19 45t44 19t46 -19q18 -19 18 -45z" />
    <glyph glyph-name="dotlessi" unicode="&#x131;" horiz-adv-x="274" 
d="M204 0h-134v511h134v-511z" />
    <glyph glyph-name="Lslash" unicode="&#x141;" horiz-adv-x="577" 
d="M552 0h-471v228l-61 -43v111l61 43v365h140v-281l167 114v-111l-167 -114v-192h331v-120z" />
    <glyph glyph-name="lslash" unicode="&#x142;" horiz-adv-x="303" 
d="M217 0h-132v264l-55 -39v114l55 39v311l132 29v-258l56 38v-114l-56 -38v-346z" />
    <glyph glyph-name="OE" unicode="&#x152;" horiz-adv-x="1087" 
d="M384 602q-86 0 -137 -68t-51 -178t47 -180t140 -70t150 25v428q-63 43 -149 43zM1047 0h-507q-76 -14 -160 -14q-166 0 -248 110t-82 267q0 156 88 257t240 101q90 0 162 -18h488v-113h-351v-167h266v-112h-266v-199h370v-112z" />
    <glyph glyph-name="oe" unicode="&#x153;" horiz-adv-x="938" 
d="M414 232q0 186 -111 186q-118 -1 -118 -163q0 -76 30 -119t85 -43q54 1 84 43t30 96zM650 424q-44 0 -72 -30t-35 -82h213q-12 112 -106 112zM542 224q8 -132 126 -132q64 0 122 63l86 -66q-85 -103 -224 -103q-108 0 -174 71q-68 -70 -182 -70t-180 73t-66 194t68 196
t181 75q114 0 180 -69q67 69 178 69t171 -78t60 -201q0 -7 -3 -22h-343z" />
    <glyph glyph-name="Scaron" unicode="&#x160;" horiz-adv-x="639" 
d="M197 525q-1 -37 29 -57t132 -48t168 -80q67 -52 67 -146t-71 -152q-72 -58 -182 -57q-110 0 -174 30t-116 97l90 87q66 -97 187 -97q61 0 94 26t33 66q0 72 -143 110t-197 84t-55 136t75 143q76 52 174 52q98 -1 158 -29t116 -80l-86 -91q-74 84 -183 84q-52 -1 -84 -21
t-32 -57zM492 911l-122 -149h-102l-123 149h94l81 -74l79 74h93z" />
    <glyph glyph-name="scaron" unicode="&#x161;" horiz-adv-x="506" 
d="M251 426q-70 0 -70 -45q0 -21 18 -33q19 -12 99 -36q80 -25 121 -62t41 -107q0 -69 -55 -113t-162 -44t-193 83l68 82q62 -62 138 -62q38 0 60 15t22 39q0 25 -21 37t-73 28t-64 22q-62 21 -92 53q-30 33 -30 101q0 67 57 104t129 37t118 -15t92 -53l-67 -84
q-66 53 -136 53zM436 733l-122 -150h-102l-123 150h95l81 -75l78 75h93z" />
    <glyph glyph-name="Ydieresis" unicode="&#x178;" horiz-adv-x="697" 
d="M417 0h-141v281l-261 422h162l170 -306l172 306h163l-265 -421v-282zM309 828q0 -26 -19 -45t-45 -19t-45 19t-19 45t19 44t45 19q26 -1 45 -19t19 -44zM517 828q-1 -26 -19 -45t-44 -19t-46 19q-18 19 -18 45t18 44t46 19q26 -1 44 -19t19 -44z" />
    <glyph glyph-name="Zcaron" unicode="&#x17d;" horiz-adv-x="640" 
d="M596 114v-114h-561v98l389 492h-367v113h540v-101l-386 -488h385zM479 911l-122 -149h-102l-123 149h94l81 -74l79 74h93z" />
    <glyph glyph-name="zcaron" unicode="&#x17e;" horiz-adv-x="488" 
d="M449 0h-424v86l252 318h-230v107h401v-86l-251 -317h252v-108zM415 733l-122 -150h-102l-123 150h94l81 -75l79 75h93z" />
    <glyph glyph-name="florin" unicode="&#x192;" horiz-adv-x="457" 
d="M385 621q-61 0 -74 -66l-8 -44h95v-97h-115l-103 -473q-16 -72 -62 -111t-112 -39q-19 0 -31 2v84q53 0 65 51l106 486h-77v97h97l10 55q13 72 57 110q45 38 105 37q60 0 99 -23v-96q-20 27 -52 27z" />
    <glyph glyph-name="circumflex" unicode="&#x2c6;" horiz-adv-x="487" 
d="M417 584l-95 -1l-80 75l-79 -75h-93l122 150h102z" />
    <glyph glyph-name="caron" unicode="&#x2c7;" horiz-adv-x="487" 
d="M417 733l-122 -150h-102l-123 150h94l81 -75l79 75h93z" />
    <glyph glyph-name="breve" unicode="&#x2d8;" horiz-adv-x="470" 
d="M247 582q-63 0 -101 20q-65 37 -76 128h81q11 -71 83 -71q34 -1 56 19t27 52h83q-8 -62 -49 -105t-104 -43z" />
    <glyph glyph-name="dotaccent" unicode="&#x2d9;" horiz-adv-x="267" 
d="M197 662q-1 -26 -19 -45t-44 -19t-45 19t-19 45t19 45t45 19t44 -19t19 -45z" />
    <glyph glyph-name="ring" unicode="&#x2da;" horiz-adv-x="365" 
d="M233 693q-1 23 -15 37t-36 15q-22 -1 -36 -15t-15 -37q1 -23 15 -38t36 -15t36 15t15 38zM295 692q0 -46 -33 -78t-80 -33q-48 1 -80 33t-32 79t32 79t80 32q47 0 80 -32q33 -34 33 -80z" />
    <glyph glyph-name="ogonek" unicode="&#x2db;" horiz-adv-x="338" 
d="M150 -111q0 -40 52 -40q23 0 56 11l10 -41q-48 -27 -94 -27t-75 22t-29 56t34 73t74 62h60q-88 -82 -88 -116z" />
    <glyph glyph-name="tilde" unicode="&#x2dc;" horiz-adv-x="505" 
d="M336 587q-40 -1 -92 25q-51 26 -64 26q-28 0 -36 -47l-74 2q2 53 30 91t72 38t91 -26q48 -26 60 -25q31 0 38 48h24l50 -3q-5 -56 -32 -92t-67 -37z" />
    <glyph glyph-name="hungarumlaut" unicode="&#x2dd;" horiz-adv-x="591" 
d="M314 733l-154 -149h-90l89 149h155zM521 733l-154 -149h-90l90 149h154z" />
    <glyph glyph-name="endash" unicode="&#x2013;" horiz-adv-x="534" 
d="M40 402h454v-121l-454 -1v122z" />
    <glyph glyph-name="emdash" unicode="&#x2014;" horiz-adv-x="636" 
d="M40 402h556v-121l-556 -1v122z" />
    <glyph glyph-name="quoteleft" unicode="&#x2018;" horiz-adv-x="287" 
d="M252 703l-75 -236h-137l120 254z" />
    <glyph glyph-name="quoteright" unicode="&#x2019;" horiz-adv-x="287" 
d="M247 703l-120 -254l-92 18l75 236h137z" />
    <glyph glyph-name="quotesinglbase" unicode="&#x201a;" horiz-adv-x="292" 
d="M252 123l-120 -254l-92 18l75 236h137z" />
    <glyph glyph-name="quotedblleft" unicode="&#x201c;" horiz-adv-x="500" 
d="M252 703l-75 -236h-137l120 254zM465 703l-74 -236h-138l120 254z" />
    <glyph glyph-name="quotedblright" unicode="&#x201d;" horiz-adv-x="500" 
d="M247 703l-120 -254l-92 18l75 236h137zM460 703l-120 -254l-92 18l75 236h137z" />
    <glyph glyph-name="quotedblbase" unicode="&#x201e;" horiz-adv-x="505" 
d="M252 123l-120 -254l-92 18l75 236h137zM465 123l-120 -254l-92 18l75 236h137z" />
    <glyph glyph-name="dagger" unicode="&#x2020;" horiz-adv-x="611" 
d="M541 399h-172v-399h-127v399h-172v112h172v192h127v-192h172v-112z" />
    <glyph glyph-name="daggerdbl" unicode="&#x2021;" horiz-adv-x="610" 
d="M540 120h-173v-208h-123v207h-174v108h174v176h-174v108h174v192h123v-192h173v-108h-173v-175h173v-108z" />
    <glyph glyph-name="bullet" unicode="&#x2022;" horiz-adv-x="435" 
d="M370 359q0 -64 -44 -108t-108 -44t-108 44t-45 108q0 64 44 109t108 45q65 0 109 -45t44 -109z" />
    <glyph glyph-name="ellipsis" unicode="&#x2026;" horiz-adv-x="763" 
d="M189 63h1q0 -31 -22 -53t-53 -22t-53 22t-22 52t22 53q22 22 53 22t53 -22t21 -52zM456 62q0 -30 -22 -52t-52 -22q-31 0 -53 22t-22 52t22 53q22 22 53 22q30 0 52 -22q22 -23 22 -53zM723 62q0 -30 -22 -52t-53 -22t-53 22t-22 52t22 53q22 22 53 22t53 -22
q22 -23 22 -53z" />
    <glyph glyph-name="perthousand" unicode="&#x2030;" horiz-adv-x="1427" 
d="M310 487h1q0 148 -79 149q-80 0 -80 -146t79 -147q79 0 79 144zM698 215q0 -147 80 -147t79 146q0 146 -79 146q-80 2 -80 -145zM1116 215q0 -147 79 -147t80 146t-78 146q-81 2 -81 -145zM412 490q0 -94 -46 -160t-134 -65q-86 -1 -134 61t-48 159t46 163t136 65
t135 -65t45 -158zM740 709l-379 -719l-90 5l379 719zM778 -10q-86 0 -134 62t-48 158t46 162t136 65t136 -65t44 -158q0 -94 -46 -158q-46 -66 -134 -66zM1377 215q0 -93 -47 -159q-48 -66 -134 -66t-134 62t-47 158q0 96 46 162t136 65q90 0 135 -64t45 -158z" />
    <glyph glyph-name="guilsinglleft" unicode="&#x2039;" horiz-adv-x="341" 
d="M301 69h-109l-152 212l170 238l91 -25l-154 -213z" />
    <glyph glyph-name="guilsinglright" unicode="&#x203a;" horiz-adv-x="341" 
d="M301 281l-152 -212h-109l154 212l-154 213l91 25z" />
    <glyph glyph-name="fraction" unicode="&#x2044;" horiz-adv-x="411" 
d="M463 699l-408 -708l-100 12l408 709z" />
    <glyph glyph-name="Euro" unicode="&#x20ac;" horiz-adv-x="742" 
d="M240 354q0 -16 2 -42h231l-21 -64h-198q14 -50 43 -84q52 -61 135 -61t141 105q2 4 3 5l136 -49q0 -13 -35 -56q-48 -58 -105 -90q-57 -33 -140 -33q-140 0 -220 72t-105 190h-106l18 64h79q-1 14 -1 40v29h-97l21 65h84q23 125 106 200t199 75q217 0 299 -181
q-72 -28 -135 -49q-44 111 -153 111q-65 0 -109 -42t-62 -114h223l-21 -65h-211q-1 -10 -1 -26z" />
    <glyph glyph-name="trademark" unicode="&#x2122;" horiz-adv-x="787" 
d="M339 642h-108v-303h-72v303h-109v61h289v-61zM450 339h-64v364h81l61 -166q32 -88 34 -96q13 44 34 96l60 166h81v-363l-69 -1v259l-21 -70l-69 -188h-38l-74 209l-4 13q-4 10 -8 22t-4 14v-259z" />
    <glyph glyph-name="minus" unicode="&#x2212;" horiz-adv-x="642" 
d="M592 264h-542v107h542v-107z" />
    <glyph glyph-name="CR" unicode="&#xe001;" horiz-adv-x="500" 
 />
    </font>
</defs>
</svg>
