<?xml version="1.0" standalone="no"?>
<!DOCTYPE svg PUBLIC "-//W3C//DTD SVG 1.1//EN" "http://www.w3.org/Graphics/SVG/1.1/DTD/svg11.dtd" >
<svg xmlns="http://www.w3.org/2000/svg">
<metadata>
Created by Font 20130207 at Fri May 17 17:50:03 2013
 By Andrew Eblin
Copyright (c) 2002 by Dylan Smith &#38; Kienan Smith. Published by GarageFonts USA 301-879-9222 - - www.garagefonts.com. All rights reserved.
</metadata>
<defs>
<font id="vwaaxvpmwt" >
  <font-face 
    font-family="District-Light"
    font-weight="300"
    font-stretch="normal"
    units-per-em="1000"
    panose-1="2 0 4 6 5 0 0 2 0 4"
    ascent="800"
    descent="-200"
    x-height="501"
    cap-height="703"
    bbox="-100 -218 1264 931"
    underline-thickness="20"
    underline-position="-113"
    unicode-range="U+0020-FB02"
  />
<missing-glyph horiz-adv-x="0" 
 />
    <glyph glyph-name="fi" unicode="fi" horiz-adv-x="510" 
d="M440 0h-69v442h-186v-442h-68v442h-82v59h82v84q1 57 35 93t90 36t76 -20v-72q-16 32 -54 32t-59 -20q-20 -20 -20 -50v-83h255v-501z" />
    <glyph glyph-name="fl" unicode="fl" horiz-adv-x="541" 
d="M247 655q-62 0 -62 -66v-88h116v-59h-116v-442h-68v442h-82v59h82v84q0 129 118 129q42 0 62 -20v-72q-15 33 -50 33zM471 0h-69v703h69v-703z" />
    <glyph glyph-name=".notdef" horiz-adv-x="0" 
 />
    <glyph glyph-name=".notdef" horiz-adv-x="0" 
 />
    <glyph glyph-name=".null" unicode="&#xe000;" horiz-adv-x="0" 
 />
    <glyph glyph-name="nonmarkingreturn" horiz-adv-x="333" 
 />
    <glyph glyph-name="space" unicode=" " horiz-adv-x="284" 
 />
    <glyph glyph-name="exclam" unicode="!" horiz-adv-x="239" 
d="M120 -10q-20 0 -36 14q-14 14 -14 36q0 20 14 34t36 15q20 0 34 -14t15 -35q-1 -22 -15 -36t-34 -14zM82 706h71v-367l-13 -157h-45l-13 157v367z" />
    <glyph glyph-name="quotedbl" unicode="&#x22;" horiz-adv-x="335" 
d="M50 704q0 21 45 21l1 -1q45 0 45 -24l-26 -291h-39l-26 292v3zM194 704q0 21 44 21h1l1 -1q45 0 45 -24l-27 -291h-39l-25 292v3z" />
    <glyph glyph-name="numbersign" unicode="#" horiz-adv-x="716" 
d="M431 438h-137l-12 -159h138zM646 438h-147l-11 -158h147v-62h-150l-15 -218h-69l16 218h-139l-16 -218h-67l16 217h-141v62h143l12 158h-144v64h148l14 203h70l-15 -203h138l14 203h68l-15 -203h143v-63z" />
    <glyph glyph-name="dollar" unicode="$" horiz-adv-x="597" 
d="M335 -52h-65v53q-161 13 -220 145l59 47q49 -129 191 -129q84 0 130 39t46 97q0 72 -150 118q-22 6 -53 16q-107 29 -151 73q-44 45 -44 121t54 122t137 53v48h66v-48q50 -3 75 -15q26 -14 34 -18t20 -13t16 -13q6 -4 16 -15t13 -13t13 -14t10 -13l-56 -47q-36 52 -74 76
t-104 23q-64 0 -106 -30t-43 -82q1 -53 33 -77t78 -40t88 -29q40 -13 60 -21q71 -27 105 -63t34 -104t-56 -126t-156 -67v-54z" />
    <glyph glyph-name="percent" unicode="%" horiz-adv-x="928" 
d="M110 514q0 -195 100 -195q34 0 58 26q42 46 41 140v2q0 77 -26 125q-25 48 -73 49q-48 0 -74 -48t-26 -99zM619 238q0 -195 100 -195q33 0 57 26q42 46 42 140v2q0 77 -26 125t-74 49q-48 0 -73 -48q-26 -48 -26 -99zM50 468q0 244 171 245q68 0 108 -65t40 -159v-3
q-1 -96 -43 -158t-118 -62t-117 64q-41 62 -41 138zM696 725l-399 -745h-63l400 745h62zM559 193q0 244 171 244q68 0 108 -65t40 -159v-3q-1 -96 -43 -158q-41 -62 -117 -62t-118 64t-41 139z" />
    <glyph glyph-name="ampersand" unicode="&#x26;" horiz-adv-x="630" 
d="M122 197q0 -73 54 -109t130 -37q77 0 124 34l-214 242q-94 -36 -94 -130zM295 -12q-113 0 -179 58t-66 137t33 119t95 68l-50 56q-40 44 -40 122t64 124t169 46t181 -70q25 -23 32 -33t9 -12l-56 -48q-37 53 -75 77t-104 23q-64 0 -106 -30t-42 -78t20 -71l293 -340
q12 27 12 58l72 1q0 -64 -36 -116l69 -79h-84l-31 34q-67 -46 -180 -46z" />
    <glyph glyph-name="quotesingle" unicode="'" horiz-adv-x="191" 
d="M50 704q0 21 45 21l1 -1q45 0 45 -24l-26 -291h-39l-26 292v3z" />
    <glyph glyph-name="parenleft" unicode="(" horiz-adv-x="325" 
d="M50 324q0 130 58 260t166 209l21 -39q-170 -178 -170 -430t170 -428l-20 -39q-109 80 -167 209q-58 128 -58 258z" />
    <glyph glyph-name="parenright" unicode=")" horiz-adv-x="325" 
d="M275 326q1 -130 -57 -260t-167 -209l-21 39q170 176 170 428t-170 430l20 39q110 -80 168 -209q58 -128 57 -258z" />
    <glyph glyph-name="asterisk" unicode="*" horiz-adv-x="397" 
d="M347 496l-23 -49l-110 71l12 -135h-54l12 135l-111 -69l-23 49l129 46l-129 44l23 49l111 -69l-12 135h54l-12 -135l109 71l24 -48l-123 -48z" />
    <glyph glyph-name="plus" unicode="+" horiz-adv-x="625" 
d="M575 286h-229v-233h-66v232h-230v64h229v232h66v-231h230v-64z" />
    <glyph glyph-name="comma" unicode="," horiz-adv-x="203" 
d="M163 82l-85 -203l-53 11l55 192h83z" />
    <glyph glyph-name="hyphen" unicode="-" horiz-adv-x="350" 
d="M300 311h-250v69h250v-69z" />
    <glyph glyph-name="period" unicode="." horiz-adv-x="179" 
d="M139 40q-1 -20 -15 -36q-14 -14 -34 -14t-36 14q-14 14 -14 36q0 20 14 34t36 15q20 -1 34 -15t15 -34z" />
    <glyph glyph-name="slash" unicode="/" horiz-adv-x="456" 
d="M436 748l-341 -793h-75l342 793h74z" />
    <glyph glyph-name="zero" unicode="0" horiz-adv-x="612" 
d="M490 353q0 137 -48 219t-137 83q-89 0 -136 -83q-47 -82 -47 -220t47 -220t136 -82t137 83t48 220zM562 352q0 -166 -68 -265t-188 -99t-188 99t-68 265t68 266q68 99 188 99t188 -99q68 -100 68 -266z" />
    <glyph glyph-name="one" unicode="1" horiz-adv-x="370" 
d="M80 552h-10v52q126 5 136 99h64v-703h-72v567q-18 -15 -118 -15z" />
    <glyph glyph-name="two" unicode="2" horiz-adv-x="577" 
d="M512 522q0 -84 -38 -140t-89 -98t-91 -71q-59 -45 -100 -80q-40 -35 -54 -68h364v-65h-454q0 78 62 143q62 64 122 110q62 45 102 79q104 86 104 179q0 67 -44 105t-108 38t-105 -35t-53 -75l-57 34q24 58 80 98t146 40q89 0 151 -55t62 -139z" />
    <glyph glyph-name="three" unicode="3" horiz-adv-x="574" 
d="M99 182q31 -131 181 -131q70 -1 116 35t46 109q0 140 -175 140h-73v61h66q162 0 162 128q0 58 -38 94t-105 36t-107 -32t-53 -78l-60 34q44 74 93 106t132 32q84 0 146 -48t62 -140q0 -121 -127 -159q149 -17 149 -181q0 -84 -66 -142t-164 -58q-188 0 -244 156z" />
    <glyph glyph-name="four" unicode="4" horiz-adv-x="614" 
d="M394 233l1 374l-268 -374h267zM564 172h-103v-172h-66v171h-345v58l336 474h75v-470h103v-61z" />
    <glyph glyph-name="five" unicode="5" horiz-adv-x="578" 
d="M528 232q0 -110 -68 -177t-182 -67q-74 0 -137 34t-91 97l52 42q60 -111 177 -111q84 0 131 50t47 131q0 83 -45 129t-123 46q-106 0 -149 -91l-65 18l18 371h388v-67h-325l-16 -235q56 65 160 65q104 -1 166 -63t62 -172z" />
    <glyph glyph-name="six" unicode="6" horiz-adv-x="598" 
d="M303 390q-79 0 -130 -44t-51 -117q0 -72 51 -125q51 -54 130 -54q77 0 125 47t48 126t-48 123q-46 44 -125 44zM306 452q116 0 178 -62q64 -62 64 -170t-69 -170t-180 -62q-155 0 -216 140q-33 76 -33 161t17 155t51 132q34 61 94 98t140 37q81 0 131 -38l-33 -52
q-232 96 -310 -162q-14 -46 -21 -97q71 90 187 90z" />
    <glyph glyph-name="seven" unicode="7" horiz-adv-x="554" 
d="M40 636v68h454v-67q-116 -151 -172 -303t-68 -334h-73q9 164 75 331t171 305h-387z" />
    <glyph glyph-name="eight" unicode="8" horiz-adv-x="607" 
d="M302 342q-80 0 -130 -39t-50 -105t48 -106t135 -41q87 0 133 40t47 103v2q1 68 -51 107t-132 39zM296 654q-72 0 -110 -37t-38 -89t43 -88t115 -36t114 36t41 94t-47 88q-46 32 -118 32zM192 376q-114 42 -114 166q0 68 60 122q60 52 166 52t168 -51q60 -51 60 -133
q0 -116 -116 -155q141 -43 141 -194q0 -79 -67 -137t-187 -58q-121 0 -187 58t-66 139t36 123t106 68z" />
    <glyph glyph-name="nine" unicode="9" horiz-adv-x="598" 
d="M475 470h1q0 50 -28 95q-53 86 -143 86q-89 0 -137 -47t-46 -126t48 -123t124 -44q78 1 130 45q51 44 51 114zM548 393q0 -67 -16 -137t-48 -132t-90 -98t-138 -36t-133 38l33 52q18 -9 29 -12l25 -8q82 -26 148 18q97 63 120 261q-70 -90 -186 -90t-179 62
q-63 61 -63 169t69 170t179 63q190 0 238 -201q12 -52 12 -119z" />
    <glyph glyph-name="colon" unicode=":" horiz-adv-x="199" 
d="M100 -10q-20 0 -36 14q-14 14 -14 36q0 20 14 34t36 15q20 0 34 -14t15 -35q-1 -22 -15 -36t-34 -14zM149 452q-1 -20 -15 -36q-14 -14 -34 -14t-36 14q-14 14 -14 36q0 20 14 34t36 15q20 -1 34 -15t15 -34z" />
    <glyph glyph-name="semicolon" unicode=";" horiz-adv-x="214" 
d="M163 82l-85 -203l-53 11l55 192h83zM164 452q0 -20 -14 -36q-14 -14 -36 -14q-20 0 -34 14t-15 36q1 20 15 34t34 15q20 -1 36 -15q14 -14 14 -34z" />
    <glyph glyph-name="less" unicode="&#x3c;" horiz-adv-x="543" 
d="M503 30l-463 284v69l463 285v-79l-400 -239l400 -241v-79z" />
    <glyph glyph-name="equal" unicode="=" horiz-adv-x="642" 
d="M592 186h-542v65h542v-65zM50 448h542v-64l-542 -1v65z" />
    <glyph glyph-name="greater" unicode="&#x3e;" horiz-adv-x="543" 
d="M503 315l-463 -286v79l400 240l-400 240v80l463 -284v-69z" />
    <glyph glyph-name="question" unicode="?" horiz-adv-x="513" 
d="M245 -12q-20 0 -35 14t-15 36q0 20 15 34t35 15q21 -1 35 -15t14 -35l1 1q0 -22 -15 -36t-35 -14zM208 178q0 75 18 116q18 42 55 70q38 29 64 50q26 22 29 28t11 16q8 12 13 30t5 55q1 37 -37 73t-103 37q-65 0 -100 -22t-64 -87l-59 35q41 76 93 106t138 30t144 -50
t58 -134q-1 -85 -57 -139q-22 -20 -68 -56q-48 -36 -59 -62q-11 -25 -11 -88l1 -8h-71z" />
    <glyph glyph-name="at" unicode="@" horiz-adv-x="860" 
d="M563 395q0 86 -84 86q-53 1 -101 -63t-48 -123q0 -113 78 -113q40 0 79 36t57 86t19 91zM800 400q0 -130 -54 -208q-54 -80 -133 -80q-78 0 -94 71q-47 -61 -115 -61t-107 46q-40 46 -40 126t69 165q69 84 157 84t116 -69l19 50h64q0 -10 -72 -238l-25 -77q-1 -3 -1 -14
t12 -24t28 -13l1 1q32 -1 58 25q25 26 47 84t22 124q0 122 -78 198t-218 76t-244 -108t-104 -259q0 -153 92 -237t226 -84q132 0 243 89l23 -38q-122 -97 -260 -97q-212 0 -318 164q-54 84 -54 196q0 174 118 297t279 123q163 0 253 -91t90 -221z" />
    <glyph glyph-name="A" unicode="A" horiz-adv-x="658" 
d="M458 258l-128 364l-129 -364h257zM628 0h-77l-71 195h-302l-71 -195h-77l265 703h71z" />
    <glyph glyph-name="B" unicode="B" horiz-adv-x="637" 
d="M509 200q1 77 -51 111t-131 34h-185v-279h179q139 0 173 63q16 28 15 71zM480 526q0 111 -145 111h-193v-228h184q154 0 154 117zM582 215q0 -64 -16 -102q-30 -69 -99 -91q-68 -22 -167 -22h-230v703h274q94 -1 152 -43t57 -133q0 -114 -113 -146q62 -14 102 -58
t40 -108z" />
    <glyph glyph-name="C" unicode="C" horiz-adv-x="651" 
d="M347 653q-107 1 -165 -87t-58 -213t58 -213t169 -89q111 0 171 107l62 -40q-81 -133 -244 -133t-244 158q-46 90 -46 229q0 138 80 242t218 104q96 0 162 -49t101 -132l-70 -27q-59 143 -194 143z" />
    <glyph glyph-name="D" unicode="D" horiz-adv-x="651" 
d="M528 352h1q0 144 -63 214t-194 70l-128 1v-572h123q135 0 198 69t63 218zM277 703q324 1 324 -351t-333 -352h-198v703h207z" />
    <glyph glyph-name="E" unicode="E" horiz-adv-x="562" 
d="M532 0h-462v703h442v-66h-370v-236h279v-66h-279v-268h390v-67z" />
    <glyph glyph-name="F" unicode="F" horiz-adv-x="527" 
d="M507 638h-366v-235h275v-65h-274v-338h-72v703h437v-65z" />
    <glyph glyph-name="G" unicode="G" horiz-adv-x="690" 
d="M640 318q0 -135 -78 -234t-214 -99q-94 0 -164 53q-134 102 -134 310q0 162 82 266t219 104q97 0 165 -54t95 -126l-70 -26q-39 66 -79 104t-114 38q-72 0 -126 -48q-98 -87 -98 -255q0 -112 54 -206q54 -95 169 -95q83 0 149 74t66 157l-1 10h-196v67h275v-40z" />
    <glyph glyph-name="H" unicode="H" horiz-adv-x="675" 
d="M605 0h-72v330h-391v-330h-72v703h72v-308h391v308h72v-703z" />
    <glyph glyph-name="I" unicode="I" horiz-adv-x="213" 
d="M143 0h-73v703h73v-703z" />
    <glyph glyph-name="J" unicode="J" horiz-adv-x="519" 
d="M449 259q0 -137 -49 -205t-157 -68q-109 0 -159 46t-69 144l70 20q11 -72 45 -108t105 -37q140 0 140 185v467h74v-444z" />
    <glyph glyph-name="K" unicode="K" horiz-adv-x="633" 
d="M143 0h-73v703h73v-397l344 397h89l-241 -271l273 -432h-86l-235 378l-144 -164v-214z" />
    <glyph glyph-name="L" unicode="L" 
d="M512 0h-442v704h74v-637h368v-67z" />
    <glyph glyph-name="M" unicode="M" horiz-adv-x="758" 
d="M688 0h-74v552l-225 -552h-18l-228 552v-552h-73v703h84l226 -561l223 561h85v-703z" />
    <glyph glyph-name="N" unicode="N" horiz-adv-x="670" 
d="M600 0h-72l-385 589v-589h-73v703h73l384 -590v590h73v-703z" />
    <glyph glyph-name="O" unicode="O" horiz-adv-x="695" 
d="M569 353h1q0 172 -99 256q-52 44 -124 44q-72 1 -124 -43q-99 -83 -99 -258q0 -124 58 -212t165 -89q59 0 105 30t70 78q47 94 47 194zM645 368q0 -158 -74 -270q-74 -113 -234 -113q-161 0 -241 158q-46 90 -46 229q0 138 80 242t218 104q98 0 167 -53
q130 -100 130 -297z" />
    <glyph glyph-name="P" unicode="P" horiz-adv-x="599" 
d="M507 501q0 88 -52 113q-52 26 -138 26h-175v-279h187q178 0 178 140zM505 341q-74 -44 -176 -44h-186v-297h-73v703h251q149 0 204 -53q54 -53 54 -159t-74 -150z" />
    <glyph glyph-name="Q" unicode="Q" horiz-adv-x="695" 
d="M569 353h1q0 172 -99 256q-52 44 -117 44q-65 1 -110 -27t-70 -73q-26 -45 -38 -96t-12 -105q0 -112 54 -206q54 -95 169 -95q16 0 44 4l-42 60l59 42l51 -72q56 41 83 117t27 151zM645 355h-1q0 -104 -36 -192t-109 -135l39 -56l-59 -42l-47 67q-44 -12 -94 -12
q-50 1 -100 21q-91 37 -139 132q-49 95 -49 234q0 138 80 242t218 104q97 0 166 -52q131 -100 131 -311z" />
    <glyph glyph-name="R" unicode="R" horiz-adv-x="607" 
d="M506 520q0 60 -46 88q-46 30 -123 30h-195v-269h186q129 0 163 63q15 28 15 88zM143 306v-306h-73v703h264q108 0 176 -47t68 -153q0 -165 -188 -194l192 -309h-87l-186 306h-166z" />
    <glyph glyph-name="S" unicode="S" horiz-adv-x="564" 
d="M454 180q0 51 -44 88t-152 75t-153 82t-45 122t64 124t162 46q132 1 204 -85q6 -6 27 -30l-54 -45q-35 51 -77 74t-106 23t-108 -30q-43 -30 -43 -81t32 -79q33 -28 149 -70q116 -44 165 -90t49 -129t-70 -137t-169 -53q-168 0 -235 151l53 42q49 -130 183 -130
q78 0 123 40t45 92z" />
    <glyph glyph-name="T" unicode="T" horiz-adv-x="541" 
d="M521 637h-214v-637h-73v637h-214v66h501v-66z" />
    <glyph glyph-name="U" unicode="U" horiz-adv-x="629" 
d="M574 332q0 -183 -58 -265t-202 -82q-144 -1 -201 81q-58 82 -58 265v372h73v-417q0 -176 91 -217q38 -17 94 -17q108 0 148 60t40 174v417h73v-371z" />
    <glyph glyph-name="V" unicode="V" horiz-adv-x="633" 
d="M603 703l-251 -703h-73l-249 703h78l207 -616l212 616h76z" />
    <glyph glyph-name="W" unicode="W" horiz-adv-x="859" 
d="M829 703l-171 -703h-71l-157 589l-156 -589h-69l-175 703h75l137 -596l156 596h65l159 -596l134 596h73z" />
    <glyph glyph-name="X" unicode="X" horiz-adv-x="632" 
d="M602 0h-86l-199 319l-205 -319h-82l243 372l-216 331h87l173 -277l175 277h84l-217 -330z" />
    <glyph glyph-name="Y" unicode="Y" horiz-adv-x="611" 
d="M338 0h-71v284l-252 419h83l205 -351l209 351h84l-258 -418v-285z" />
    <glyph glyph-name="Z" unicode="Z" horiz-adv-x="582" 
d="M544 64v-64h-509v56l426 580h-403v67h489v-60l-423 -579h420z" />
    <glyph glyph-name="bracketleft" unicode="[" horiz-adv-x="292" 
d="M252 -127h-182v902h182v-57h-115v-788h115v-57z" />
    <glyph glyph-name="backslash" unicode="\" horiz-adv-x="446" 
d="M431 -45h-74l-342 793h75z" />
    <glyph glyph-name="bracketright" unicode="]" horiz-adv-x="292" 
d="M222 -127h-182v57h115v788h-115v57h182v-902z" />
    <glyph glyph-name="asciicircum" unicode="^" horiz-adv-x="581" 
d="M511 366h-81l-139 255l-141 -255h-80l192 337h59z" />
    <glyph glyph-name="underscore" unicode="_" horiz-adv-x="500" 
d="M505 -139h-510v57h510v-57z" />
    <glyph glyph-name="grave" unicode="`" horiz-adv-x="357" 
d="M287 577l-56 -1l-161 151h109z" />
    <glyph glyph-name="a" unicode="a" 
d="M284 257q-68 1 -116 -33q-50 -34 -50 -80t26 -70q26 -26 76 -26t96 34t58 81v67q-22 27 -90 27zM80 412q49 101 189 101q66 -1 120 -41t54 -110v-295q0 -22 27 -22h12v-45h-54q-26 0 -40 13t-14 34v26q-57 -83 -165 -83q-75 0 -117 40t-42 106q0 65 38 106q66 72 199 72
q59 0 87 -13v41q0 111 -113 111q-51 0 -77 -17t-56 -61z" />
    <glyph glyph-name="b" unicode="b" horiz-adv-x="531" 
d="M410 253q0 95 -36 147t-95 51q-59 0 -95 -38t-46 -95v-169q23 -51 61 -75t78 -24q133 0 133 203zM481 253q1 -118 -51 -191t-142 -73t-150 80v-69h-68v703h68v-271q54 80 146 80t144 -70t53 -189z" />
    <glyph glyph-name="c" unicode="c" horiz-adv-x="492" 
d="M282 451q-74 0 -118 -53q-42 -53 -42 -142t37 -148t113 -59t124 68l55 -32q-67 -97 -174 -97t-167 72t-60 193t66 190t161 69q57 0 97 -22t78 -70l-52 -36q-44 67 -118 67z" />
    <glyph glyph-name="d" unicode="d" horiz-adv-x="531" 
d="M252 451q-59 0 -95 -52t-36 -146q0 -203 133 -203q40 0 78 24t61 75v169q-9 57 -45 95t-96 38zM461 0h-68v69q-60 -80 -150 -80q-89 0 -141 73t-52 191q0 119 52 189t144 70t147 -80v271h68v-703z" />
    <glyph glyph-name="e" unicode="e" horiz-adv-x="526" 
d="M271 451q-63 1 -102 -41t-46 -117h288q-7 70 -42 114t-98 44zM481 258q0 -8 -2 -22h-357q2 -78 40 -132t120 -54t140 75l47 -36q-70 -101 -199 -101q-98 0 -159 70t-61 192t62 192t162 70q98 0 152 -73t55 -181z" />
    <glyph glyph-name="f" unicode="f" horiz-adv-x="336" 
d="M247 655q-62 0 -62 -66v-88h116v-59h-116v-442h-68v442h-82v59h82v84q0 129 118 129q42 0 62 -20v-72q-15 33 -50 33z" />
    <glyph glyph-name="g" unicode="g" horiz-adv-x="541" 
d="M260 452q-141 0 -141 -203q0 -95 36 -147q35 -52 101 -52q85 0 130 68q13 20 16 24v181q-8 55 -48 92t-94 37zM402 19v54q-49 -84 -148 -84q-100 1 -152 73t-52 188t54 188q54 74 151 74q98 0 147 -81v70h69v-483q-1 -100 -63 -168t-155 -68t-143 49q-18 18 -37 46l52 40
q41 -73 124 -73q111 0 145 123q8 27 8 52z" />
    <glyph glyph-name="h" unicode="h" horiz-adv-x="522" 
d="M457 0h-69v283q0 125 -53 153q-25 14 -65 14q-82 0 -106 -57q-25 -57 -25 -136v-257h-69v703h69v-268q46 77 144 77t136 -58t38 -159v-295z" />
    <glyph glyph-name="i" unicode="i" horiz-adv-x="232" 
d="M151 0h-69v501h69v-501zM162 670q0 -18 -14 -32t-32 -14t-32 14t-14 32t14 32t32 14t32 -14t14 -32z" />
    <glyph glyph-name="j" unicode="j" horiz-adv-x="225" 
d="M144 -97q0 -52 -31 -84t-75 -32t-78 21l21 55q19 -17 42 -17q52 0 52 73v583h69v-599zM155 670q0 -18 -13 -32q-12 -14 -32 -14t-33 13t-13 33t14 32q14 14 32 14q19 0 32 -14t13 -32z" />
    <glyph glyph-name="k" unicode="k" horiz-adv-x="495" 
d="M139 0h-69v703h69v-462l229 260h82l-170 -188l190 -313h-79l-157 260l-95 -109v-151z" />
    <glyph glyph-name="l" unicode="l" horiz-adv-x="210" 
d="M140 0h-70v703h70v-703z" />
    <glyph glyph-name="m" unicode="m" horiz-adv-x="793" 
d="M274 511q50 1 88 -25t50 -76q47 101 143 101q96 -1 132 -53t36 -181v-277h-70v282q1 92 -21 130t-79 38q-122 0 -122 -197v-253h-69v285q0 85 -22 125t-84 40t-90 -50t-27 -151v-249h-69v501h69v-75q34 85 135 85z" />
    <glyph glyph-name="n" unicode="n" horiz-adv-x="527" 
d="M457 0h-69v277q0 93 -28 133t-93 40q-128 0 -128 -192v-258h-69v501h69v-71q45 81 141 81t136 -57t41 -171v-283z" />
    <glyph glyph-name="o" unicode="o" horiz-adv-x="544" 
d="M423 249q0 145 -88 189q-27 14 -62 14q-79 0 -115 -59t-36 -151t41 -142t111 -51q70 0 110 53t39 147zM274 -12q-104 0 -164 71t-60 187t60 192q60 74 163 74t162 -72t59 -184t-58 -190t-162 -78z" />
    <glyph glyph-name="p" unicode="p" horiz-adv-x="531" 
d="M411 256q0 90 -36 142t-101 52t-94 -43q-28 -43 -42 -88v-173q17 -44 55 -70t82 -25q70 0 103 58q33 57 33 147zM481 250q-1 -116 -55 -188q-54 -74 -146 -74t-141 77v-265h-69v701h69v-68q53 79 147 79t145 -73q50 -73 50 -189z" />
    <glyph glyph-name="q" unicode="q" horiz-adv-x="531" 
d="M244 449q-54 -1 -89 -53t-35 -144t36 -147q36 -54 96 -54t95 38t46 95v188q-55 77 -149 77zM461 -200h-68v269q-51 -81 -144 -81t-146 70t-53 179q0 110 47 192q47 83 149 83q101 0 147 -75v64h68v-701z" />
    <glyph glyph-name="r" unicode="r" horiz-adv-x="368" 
d="M260 450q-36 0 -68 -29q-54 -51 -53 -163v-258h-69v501h69v-71q44 81 144 81q40 0 70 -10l-26 -61q-31 10 -67 10z" />
    <glyph glyph-name="s" unicode="s" horiz-adv-x="439" 
d="M219 453q-96 0 -96 -71q1 -30 23 -49t99 -45q154 -51 154 -154q-1 -64 -47 -104t-125 -41q-118 0 -177 99l51 39q43 -77 127 -77q54 0 79 22t25 58q0 34 -28 58t-114 50q-134 43 -134 141q0 58 44 96t132 38t161 -83l-51 -36q-50 59 -123 59z" />
    <glyph glyph-name="t" unicode="t" horiz-adv-x="356" 
d="M195 111q0 -59 44 -59q27 0 68 24v-65q-41 -21 -77 -21t-53 7q-33 13 -41 45q-9 32 -9 78v322h-82v59h82v202h68v-202h116v-59h-116v-331z" />
    <glyph glyph-name="u" unicode="u" horiz-adv-x="517" 
d="M447 0h-69v71q-47 -82 -143 -82q-95 1 -135 59t-40 176v277h69v-277q-1 -92 27 -132t87 -41q135 0 135 192v258h69v-501z" />
    <glyph glyph-name="v" unicode="v" horiz-adv-x="480" 
d="M450 501l-185 -501h-59l-176 501h72l135 -408l143 408h70z" />
    <glyph glyph-name="w" unicode="w" horiz-adv-x="702" 
d="M672 501l-145 -501h-61l-113 404l-113 -404h-60l-150 501h69l111 -398l113 398h61l113 -398l106 398h69z" />
    <glyph glyph-name="x" unicode="x" horiz-adv-x="471" 
d="M441 0h-78l-128 205l-131 -205h-74l168 259l-156 242h79l116 -185l118 185h73l-156 -241z" />
    <glyph glyph-name="y" unicode="y" horiz-adv-x="492" 
d="M132 -208q-22 0 -51 11v53q21 -8 38 -8q29 0 44 39l43 114l-176 500h70l141 -416l149 416h72l-242 -636q-13 -35 -39 -54q-27 -19 -49 -19z" />
    <glyph glyph-name="z" unicode="z" horiz-adv-x="410" 
d="M385 0h-360v47l270 396h-248v58h335v-46l-270 -395h273v-60z" />
    <glyph glyph-name="braceleft" unicode="{" horiz-adv-x="366" 
d="M146 73v114q0 92 -76 122v52q75 22 75 117v88q0 106 39 156t142 54v-48q-67 -12 -90 -46t-23 -108v-95q1 -63 -13 -95t-57 -50q43 -17 57 -51t14 -88v-2l-1 -121q0 -72 23 -106t90 -47v-49q-102 6 -141 52t-39 151z" />
    <glyph glyph-name="bar" unicode="|" horiz-adv-x="178" 
d="M228 775l-211 -992h-67l211 992h67z" />
    <glyph glyph-name="braceright" unicode="}" horiz-adv-x="366" 
d="M220 187v-113q0 -106 -38 -152t-142 -52v48q67 14 90 48t22 106v123q0 54 14 88t57 51q-42 18 -56 52t-14 93v95q0 74 -23 108t-90 46v48q104 -4 142 -54t38 -156v-88q0 -94 76 -117v-52q-76 -30 -76 -122z" />
    <glyph glyph-name="asciitilde" unicode="~" horiz-adv-x="604" 
d="M398 260q-36 0 -66 16t-42 23q-11 5 -35 19t-51 14t-43 -15t-41 -58l-50 42q47 104 133 104q46 0 106 -36t89 -36q29 -1 48 17t39 54l49 -42q-54 -102 -136 -102z" />
    <glyph glyph-name="nbspace" unicode="&#xa0;" horiz-adv-x="266" 
 />
    <glyph glyph-name="exclamdown" unicode="&#xa1;" horiz-adv-x="239" 
d="M156 -200h-70v367l13 157h45l12 -157v-367zM169 466q-1 -20 -15 -34t-34 -15q-20 1 -36 15q-14 14 -14 34t14 36q14 14 36 14q20 0 34 -14q14 -16 15 -36z" />
    <glyph glyph-name="cent" unicode="&#xa2;" horiz-adv-x="481" 
d="M277 121q82 0 120 67l53 -31q-56 -83 -144 -94v-117h-66v117q-94 12 -142 85q-48 72 -48 172t48 174t142 88v121h65v-120q81 -10 146 -89l-50 -35q-44 67 -124 67q-81 0 -119 -60t-38 -144t38 -142q38 -59 119 -59z" />
    <glyph glyph-name="sterling" unicode="&#xa3;" horiz-adv-x="581" 
d="M292 641q-76 1 -112 -35t-35 -87v-74h221v-68h-221v-310h224q39 0 69 25t30 59q0 65 -64 98l34 57q34 -13 66 -57q32 -43 32 -103t-44 -103t-115 -43h-307v532q0 82 58 132t165 51q107 0 173 -79l-57 -42q-41 47 -117 47z" />
    <glyph glyph-name="currency" unicode="&#xa4;" horiz-adv-x="687" 
d="M393 653q-87 1 -141 -57t-72 -151h262l-22 -64h-249v-29q0 -27 1 -40h270l-22 -64h-238q20 -88 74 -142t137 -55q115 0 175 107l62 -40q-81 -133 -236 -133q-118 -1 -192 73t-96 190h-106l20 64h77q-1 13 -1 36t1 32h-97l20 65h84q22 121 98 197t182 76q199 0 273 -181
l-70 -27q-59 143 -194 143z" />
    <glyph glyph-name="yen" unicode="&#xa5;" horiz-adv-x="631" 
d="M511 357v-51h-150l-13 -21v-75h163v-51h-163v-159h-72v159h-160v51h160v74l-13 22h-147v51h117l-208 346h83l205 -351l209 351h84l-214 -346h119z" />
    <glyph glyph-name="brokenbar" unicode="&#xa6;" horiz-adv-x="271" 
d="M171 0h-71v274h71v-274zM171 703v-275h-71v275h71z" />
    <glyph glyph-name="section" unicode="&#xa7;" horiz-adv-x="571" 
d="M351 178q39 20 69 54t30 74h1q0 59 -66 93t-158 60q-106 -48 -106 -126t230 -155zM521 312q0 -110 -115 -165q68 -45 68 -114t-52 -113t-152 -43q-100 0 -196 85l47 51q80 -70 170 -70q53 1 83 25t29 60t-29 57t-126 55t-148 76t-50 102q0 121 120 174q-63 42 -63 106
q1 64 49 106t135 43q87 0 183 -79l-46 -51q-73 65 -152 65q-44 0 -70 -22t-27 -47q0 -26 9 -41q24 -40 99 -63q135 -42 185 -83q49 -42 49 -114z" />
    <glyph glyph-name="dieresis" unicode="&#xa8;" horiz-adv-x="352" 
d="M132 639q0 -17 -12 -29t-29 -12t-29 12t-12 29t12 29t29 12t29 -12t12 -29zM302 639q0 -17 -12 -29t-29 -12t-29 12t-12 29t12 29t29 12t29 -12t12 -29z" />
    <glyph glyph-name="copyright" unicode="&#xa9;" horiz-adv-x="837" 
d="M429 132q-91 0 -149 62t-57 156t57 158t148 64t155 -80l-42 -36q-51 63 -115 63t-106 -47q-42 -48 -41 -120q0 -72 42 -120q43 -48 107 -47q64 0 116 65l40 -36q-64 -82 -155 -82zM420 671q-136 1 -228 -91t-92 -228t92 -228t225 -92q135 0 227 90t92 229l1 -1
q-1 136 -91 228t-226 93zM777 352q0 -154 -102 -256t-254 -103q-153 1 -257 101t-104 256t103 258t255 102t256 -102q103 -102 103 -256z" />
    <glyph glyph-name="ordfeminine" unicode="&#xaa;" horiz-adv-x="390" 
d="M212 544q-34 0 -68 -16q-36 -16 -36 -47q0 -47 54 -47q33 0 61 18t33 39v40q-10 13 -44 13zM198 710q45 0 81 -22t36 -65v-180q0 -10 12 -10h13v-42h-40q-40 0 -43 32q-38 -38 -91 -38q-52 -1 -84 25t-32 76t46 78t92 28t68 -6v17q0 58 -63 58q-33 -1 -50 -11t-34 -38
l-43 31q45 67 132 67z" />
    <glyph glyph-name="guillemotleft" unicode="&#xab;" horiz-adv-x="491" 
d="M272 84l-66 -16l-161 217l160 225l67 -15l-151 -209zM446 84l-66 -16l-161 217l161 225l66 -15l-151 -209z" />
    <glyph glyph-name="logicalnot" unicode="&#xac;" horiz-adv-x="642" 
d="M592 119h-68v162h-484v68h552v-230z" />
    <glyph glyph-name="registered" unicode="&#xae;" horiz-adv-x="838" 
d="M522 451q0 39 -26 53t-71 14h-84v-136h88q93 0 93 69zM400 332h-59v-188h-59v423h149q151 0 151 -113q0 -45 -26 -73t-71 -37q35 -14 75 -136q16 -52 22 -64h-68q-6 10 -22 66q-35 122 -92 122zM420 671q-136 1 -228 -91t-92 -228t92 -228t226 -92t226 91t93 228
q-1 137 -91 229t-226 91zM778 351h-1q0 -154 -103 -256t-254 -102q-152 1 -256 101t-104 256t104 258t256 102t255 -102t103 -257z" />
    <glyph glyph-name="macron" unicode="&#xaf;" horiz-adv-x="393" 
d="M323 600h-253v67h253v-67z" />
    <glyph glyph-name="degree" unicode="&#xb0;" horiz-adv-x="434" 
d="M217 669q-45 0 -75 -31q-30 -32 -29 -78q-1 -46 29 -78t75 -31q45 0 74 31t30 77q1 47 -29 79t-75 31zM384 560q0 -72 -48 -120q-48 -50 -118 -50t-120 50q-48 50 -48 120t48 120t119 50t119 -49t48 -121z" />
    <glyph glyph-name="twosuperior" unicode="&#xb2;" horiz-adv-x="473" 
d="M413 202h-352q0 65 52 125t168 142q62 43 62 101q0 34 -28 57t-78 23q-92 0 -118 -76l-57 31q20 51 70 79t116 27q66 1 114 -39t48 -99t-29 -98t-87 -78q-123 -83 -141 -132h260v-63z" />
    <glyph glyph-name="threesuperior" unicode="&#xb3;" horiz-adv-x="486" 
d="M411 565q0 -71 -64 -99q35 -14 57 -50t21 -86t-47 -94t-130 -43q-84 0 -134 36t-66 86l56 31q33 -90 132 -90q57 0 88 24t31 64q0 88 -112 88h-76v60h64q53 0 81 23t27 55q0 32 -26 56t-70 24q-90 0 -120 -77l-58 30q42 107 179 107q79 0 123 -37t44 -108z" />
    <glyph glyph-name="acute" unicode="&#xb4;" horiz-adv-x="317" 
d="M267 727l-161 -151h-56l107 151h110z" />
    <glyph glyph-name="mu" unicode="&#xb5;" horiz-adv-x="527" 
d="M457 -1h-69v72q-47 -83 -146 -83q-71 0 -105 46v-235h-67v702h69v-277q0 -90 24 -132q25 -42 85 -42t92 30t40 68t8 94v259h69v-502z" />
    <glyph glyph-name="mu" unicode="&#x3bc;" horiz-adv-x="527" 
d="M457 -1h-69v72q-47 -83 -146 -83q-71 0 -105 46v-235h-67v702h69v-277q0 -90 24 -132q25 -42 85 -42t92 30t40 68t8 94v259h69v-502z" />
    <glyph glyph-name="paragraph" unicode="&#xb6;" horiz-adv-x="618" 
d="M548 647h-17v-847h-61v847h-124v-847h-62v498h-22q-82 0 -142 60t-60 142q0 84 60 144t142 59h286v-56z" />
    <glyph glyph-name="periodcentered" unicode="&#xb7;" horiz-adv-x="219" 
d="M159 354q-1 -20 -15 -36q-14 -14 -34 -14t-36 14q-14 14 -14 36q0 20 14 34t36 15q20 -1 34 -15t15 -34z" />
    <glyph glyph-name="cedilla" unicode="&#xb8;" horiz-adv-x="328" 
d="M135 -171q68 0 68 43q0 13 -11 23q-12 10 -32 10t-35 -12q-30 7 -31 7l50 106h35l-35 -70q22 9 48 9t46 -17q20 -18 20 -54t-31 -58t-71 -22t-86 20l9 29q31 -14 56 -14z" />
    <glyph glyph-name="onesuperior" unicode="&#xb9;" horiz-adv-x="299" 
d="M144 202v385q-31 -6 -78 -6h-18v54q46 1 72 14t32 54h64l-1 -501h-71z" />
    <glyph glyph-name="ordmasculine" unicode="&#xba;" horiz-adv-x="396" 
d="M200 664q-90 0 -90 -110t86 -111q42 -1 66 29t24 82v1q0 45 -21 77t-65 32zM200 394q-70 0 -110 45t-40 115t40 115q40 44 108 44q68 -1 108 -45t40 -112t-38 -115t-108 -47z" />
    <glyph glyph-name="guillemotright" unicode="&#xbb;" horiz-adv-x="491" 
d="M271 293l-160 -225l-66 15l151 209l-151 202l66 16zM446 293l-160 -225l-67 15l151 209l-151 202l66 16z" />
    <glyph glyph-name="onequarter" unicode="&#xbc;" horiz-adv-x="948" 
d="M756 178v217l-170 -217h170zM144 202v385q-31 -6 -78 -6h-18v54q46 1 72 14t32 54h64l-1 -501h-71zM656 714l-393 -734l-58 9l394 735zM902 178v-60h-77l-1 -118h-68v118h-264v47l262 336h71v-323h77z" />
    <glyph glyph-name="onehalf" unicode="&#xbd;" horiz-adv-x="990" 
d="M144 202v385q-31 -6 -78 -6h-18v54q46 1 72 14t32 54h64l-1 -501h-71zM656 714l-394 -734l-57 9l394 735zM933 0h-352q1 66 53 126t167 141q62 43 62 102q0 34 -28 57t-78 23q-92 0 -119 -77l-56 31q20 51 70 79t116 28t114 -40t48 -98t-29 -98q-29 -38 -87 -78
q-123 -84 -141 -133h260v-63z" />
    <glyph glyph-name="threequarters" unicode="&#xbe;" horiz-adv-x="1112" 
d="M921 178v217l-170 -217h170zM411 565q0 -71 -64 -99q35 -14 57 -50t21 -86t-47 -94t-130 -43q-84 0 -134 36t-66 86l56 31q33 -90 132 -90q57 0 88 24t31 64q0 88 -112 88h-76v60h64q53 0 81 23t27 55q0 32 -26 56t-70 24q-90 0 -120 -77l-58 30q42 107 179 107
q79 0 123 -37t44 -108zM821 714l-393 -734l-58 9l394 735zM1067 178v-60h-77v-118h-69v118h-264v47l262 336h71v-323h77z" />
    <glyph glyph-name="questiondown" unicode="&#xbf;" horiz-adv-x="513" 
d="M242 -213q-86 0 -144 50t-58 134q0 85 56 139q22 20 70 56t58 64q10 26 10 94h71q1 -75 -17 -116t-56 -69t-64 -51q-26 -22 -29 -28t-11 -16q-8 -12 -13 -30t-5 -55t38 -73t102 -37q65 0 100 22t64 87l59 -35q-41 -76 -93 -106t-138 -30zM318 464q0 -20 -15 -34t-35 -15
q-20 1 -35 15t-15 34t15 36q15 14 35 14t35 -14q15 -16 15 -36z" />
    <glyph glyph-name="Agrave" unicode="&#xc0;" horiz-adv-x="658" 
d="M458 258l-128 364l-129 -364h257zM628 0h-77l-71 195h-302l-71 -195h-77l265 703h71zM371 764h-56l-161 150h109z" />
    <glyph glyph-name="Aacute" unicode="&#xc1;" horiz-adv-x="658" 
d="M458 258l-128 364l-129 -364h257zM628 0h-77l-71 195h-302l-71 -195h-77l265 703h71zM510 914l-160 -150h-56l107 150h109z" />
    <glyph glyph-name="Acircumflex" unicode="&#xc2;" horiz-adv-x="658" 
d="M458 258l-128 364l-129 -364h257zM628 0h-77l-71 195h-302l-71 -195h-77l265 703h71zM484 780h-59l-99 84l-95 -84h-57l126 149h55z" />
    <glyph glyph-name="Atilde" unicode="&#xc3;" horiz-adv-x="658" 
d="M458 258l-128 364l-129 -364h257zM628 0h-77l-71 195h-302l-71 -195h-77l265 703h71zM400 776q-37 0 -82 30t-62 29q-30 0 -42 -55l-52 5q4 45 31 77t66 31t81 -29t61 -28q32 0 44 55l51 -5q-7 -50 -33 -80t-63 -30z" />
    <glyph glyph-name="Adieresis" unicode="&#xc4;" horiz-adv-x="658" 
d="M458 258l-128 364l-129 -364h257zM628 0h-77l-71 195h-302l-71 -195h-77l265 703h71zM285 811q0 -17 -12 -29t-29 -12t-29 12t-12 29t12 29t29 12t29 -12t12 -29zM455 811q0 -17 -12 -29q-13 -12 -29 -12t-28 12t-13 29q0 17 12 29t29 12t29 -12t12 -29z" />
    <glyph glyph-name="Aring" unicode="&#xc5;" horiz-adv-x="658" 
d="M458 258l-128 364l-129 -364h257zM385 834q1 24 -15 40t-41 16t-41 -16t-15 -40q-1 -24 15 -41q16 -16 41 -16t41 16q16 17 15 41zM628 0h-77l-71 195h-302l-71 -195h-77l265 703h71zM427 834q0 -42 -28 -70t-70 -28t-70 28t-28 70q0 41 28 69t70 28t70 -28t28 -69z" />
    <glyph glyph-name="AE" unicode="&#xc6;" horiz-adv-x="1009" 
d="M974 0h-467v192h-269l-123 -192h-85l461 703h466v-66h-380v-237h287v-66h-287v-268h397v-66zM507 258v356q-70 -115 -137 -218q-67 -102 -90 -138h227z" />
    <glyph glyph-name="Ccedilla" unicode="&#xc7;" horiz-adv-x="651" 
d="M399 -116q0 36 -41 36q-21 0 -35 -11l-30 6l28 72q-131 11 -201 116t-70 256t80 255t218 104q96 0 162 -49t101 -132l-70 -27q-59 143 -194 143q-107 1 -165 -87t-58 -213t58 -213t169 -89q111 0 171 107l62 -40q-77 -128 -227 -132l-14 -35q22 9 46 9q25 0 45 -18
t20 -54t-32 -58t-70 -22q-39 0 -87 20l10 30q29 -15 63 -15t48 13t13 28z" />
    <glyph glyph-name="Egrave" unicode="&#xc8;" horiz-adv-x="562" 
d="M532 0h-462v703h442v-66h-370v-236h279v-66h-279v-268h390v-67zM356 764h-56l-161 150h109z" />
    <glyph glyph-name="Eacute" unicode="&#xc9;" horiz-adv-x="562" 
d="M532 0h-462v703h442v-66h-370v-236h279v-66h-279v-268h390v-67zM475 914l-160 -150h-56l107 150h109z" />
    <glyph glyph-name="Ecircumflex" unicode="&#xca;" horiz-adv-x="562" 
d="M532 0h-462v703h442v-66h-370v-236h279v-66h-279v-268h390v-67zM459 780h-59l-99 84l-95 -84h-57l126 149h55z" />
    <glyph glyph-name="Edieresis" unicode="&#xcb;" horiz-adv-x="562" 
d="M532 0h-462v703h442v-66h-370v-236h279v-66h-279v-268h390v-67zM270 811q0 -17 -12 -29t-29 -12t-29 12t-12 29t12 29t29 12t29 -12t12 -29zM440 811q0 -17 -12 -29t-29 -12t-29 12t-12 29t12 29t29 12t29 -12t12 -29z" />
    <glyph glyph-name="Igrave" unicode="&#xcc;" horiz-adv-x="213" 
d="M143 0h-73v703h73v-703zM145 764h-56l-160 150h109z" />
    <glyph glyph-name="Iacute" unicode="&#xcd;" horiz-adv-x="213" 
d="M143 0h-73v703h73v-703zM282 914l-160 -150h-56l107 150h109z" />
    <glyph glyph-name="Icircumflex" unicode="&#xce;" horiz-adv-x="213" 
d="M142 0h-72v703h72v-703zM261 780h-58l-100 84l-95 -84h-56l125 149h55z" />
    <glyph glyph-name="Idieresis" unicode="&#xcf;" horiz-adv-x="213" 
d="M143 0h-73v703h73v-703zM62 811q0 -17 -12 -29t-29 -12t-29 12t-12 29t12 29t29 12t29 -12t12 -29zM233 811q-1 -17 -13 -29t-28 -12t-29 12q-12 12 -12 29t12 29t29 12t29 -12t12 -29z" />
    <glyph glyph-name="Eth" unicode="&#xd0;" horiz-adv-x="678" 
d="M549 350q1 92 -31 162t-86 97q-54 28 -155 28h-114v-234h182v-62h-182v-276h106q115 1 167 31t82 96t31 158zM622 355q0 -200 -118 -294q-44 -35 -98 -48t-137 -13h-177v341h-72v62h71v300h187q115 -1 185 -33q71 -32 115 -115t44 -200z" />
    <glyph glyph-name="Ntilde" unicode="&#xd1;" horiz-adv-x="670" 
d="M600 0h-72l-385 589v-589h-73v703h73l384 -590v590h73v-703zM404 776q-37 0 -82 30t-62 29q-30 0 -42 -55l-52 5q4 45 30 77t66 31t82 -29t61 -28q33 0 43 55l52 -5q-7 -50 -33 -80t-63 -30z" />
    <glyph glyph-name="Ograve" unicode="&#xd2;" horiz-adv-x="695" 
d="M569 353h1q0 172 -99 256q-52 44 -124 44q-72 1 -124 -43q-99 -83 -99 -258q0 -124 58 -212t165 -89q59 0 105 30t70 78q47 94 47 194zM355 -15q-67 1 -117 21q-91 37 -139 132q-49 95 -49 234q0 138 80 242t222 104q143 0 218 -108t75 -256l-1 1q0 -143 -70 -253
q-34 -54 -94 -86q-58 -32 -125 -31zM397 764h-56l-161 150h109z" />
    <glyph glyph-name="Oacute" unicode="&#xd3;" horiz-adv-x="695" 
d="M569 353h1q0 172 -99 256q-52 44 -124 44q-72 1 -124 -43q-99 -83 -99 -258q0 -124 58 -212t165 -89q59 0 105 30t70 78q47 94 47 194zM355 -15q-67 1 -117 21q-91 37 -139 132q-49 95 -49 234q0 138 80 242t218 104q98 0 167 -53q130 -100 130 -310q0 -145 -71 -253
q-36 -54 -94 -86t-125 -31zM516 914l-160 -150h-57l108 150h109z" />
    <glyph glyph-name="Ocircumflex" unicode="&#xd4;" horiz-adv-x="695" 
d="M569 353h1q0 172 -99 256q-52 44 -124 44q-72 1 -124 -43q-99 -83 -99 -258q0 -124 58 -212t165 -89q59 0 105 30t70 78q47 94 47 194zM355 -15q-67 1 -117 21q-91 37 -139 132q-49 95 -49 234q0 138 80 242t218 104q98 0 167 -53q130 -100 130 -310q0 -145 -71 -253
q-36 -54 -94 -86t-125 -31zM502 780h-58l-100 84l-95 -84h-57l126 149h55z" />
    <glyph glyph-name="Otilde" unicode="&#xd5;" horiz-adv-x="695" 
d="M569 353h1q0 172 -99 256q-52 44 -124 44q-72 1 -124 -43q-99 -83 -99 -258q0 -124 58 -212t165 -89q59 0 105 30t70 78q47 94 47 194zM355 -15q-67 1 -117 21q-91 37 -139 132q-49 95 -49 234q0 138 80 242t222 104q143 0 218 -108t75 -256l-1 1q0 -143 -70 -253
q-34 -54 -94 -86q-58 -32 -125 -31zM419 776q-36 0 -83 30t-62 29q-30 0 -42 -55l-52 5q4 45 31 77t66 31t81 -29t61 -28q32 0 44 55l51 -5q-7 -50 -33 -80t-62 -30z" />
    <glyph glyph-name="Odieresis" unicode="&#xd6;" horiz-adv-x="695" 
d="M569 353h1q0 172 -99 256q-52 44 -124 44q-72 1 -124 -43q-99 -83 -99 -258q0 -124 58 -212t165 -89q59 0 105 30t70 78q47 94 47 194zM355 -15q-67 1 -117 21q-91 37 -139 132q-49 95 -49 234q0 138 80 242t218 104q98 0 167 -53q130 -100 130 -310q0 -145 -71 -253
q-36 -54 -94 -86t-125 -31zM303 811q0 -17 -12 -29q-13 -12 -29 -12t-28 12t-13 29q0 17 12 29t29 12t29 -12t12 -29zM473 811q0 -17 -12 -29q-13 -12 -29 -12t-28 12t-13 29q0 17 12 29t29 12t29 -12t12 -29z" />
    <glyph glyph-name="multiply" unicode="&#xd7;" horiz-adv-x="581" 
d="M521 66l-46 -45l-185 187l-184 -187l-46 45l185 187l-185 187l46 46l184 -187l185 187l46 -46l-185 -187z" />
    <glyph glyph-name="Oslash" unicode="&#xd8;" horiz-adv-x="694" 
d="M347 653q-107 0 -165 -88q-58 -87 -58 -215t60 -212l292 467q-54 48 -129 48zM340 51q128 0 178 101q50 102 52 214q1 112 -59 199l-292 -467q53 -47 121 -47zM336 -15q-86 0 -154 53l-59 -95l-50 18l70 112q-93 103 -93 269t80 271q80 104 218 104q96 0 166 -51l58 93
l49 -18l-69 -110q94 -103 93 -262t-74 -272q-74 -112 -235 -112z" />
    <glyph glyph-name="Ugrave" unicode="&#xd9;" horiz-adv-x="629" 
d="M314 -15q-144 -1 -201 81q-58 82 -58 265v372h73v-417q0 -176 91 -217q38 -17 94 -17q108 0 148 60t40 174v417h73l-58 -636q-58 -82 -202 -82zM380 764h-56l-160 150h109z" />
    <glyph glyph-name="Uacute" unicode="&#xda;" horiz-adv-x="629" 
d="M314 -15q-144 -1 -201 81q-58 82 -58 265v372h73v-417q0 -176 91 -217q38 -17 94 -17q108 0 148 60t40 174v417h73l-58 -636q-58 -82 -202 -82zM490 914l-161 -150h-56l108 150h109z" />
    <glyph glyph-name="Ucircumflex" unicode="&#xdb;" horiz-adv-x="629" 
d="M314 -15q-144 -1 -201 81q-58 82 -58 265v372h73v-417q0 -176 91 -217q38 -17 94 -17q108 0 148 60t40 174v417h73l-58 -636q-58 -82 -202 -82zM469 780h-58l-100 84l-95 -84h-56l125 149h55z" />
    <glyph glyph-name="Udieresis" unicode="&#xdc;" horiz-adv-x="629" 
d="M314 -15q-144 -1 -201 81q-58 82 -58 265v372h73v-417q0 -176 91 -217q38 -17 94 -17q108 0 148 60t40 174v417h73l-58 -636q-58 -82 -202 -82zM270 811q0 -17 -12 -29t-29 -12t-29 12t-12 29t12 29t29 12t29 -12t12 -29zM440 811q0 -17 -12 -29t-29 -12t-29 12t-12 29
t12 29t29 12t29 -12t12 -29z" />
    <glyph glyph-name="Yacute" unicode="&#xdd;" horiz-adv-x="611" 
d="M338 0h-71v284l-252 419h83l205 -351l209 351h84l-258 -418v-285zM469 914l-161 -150h-56l107 150h110z" />
    <glyph glyph-name="Thorn" unicode="&#xde;" horiz-adv-x="613" 
d="M325 522h-176v-278h161q120 0 163 34q43 35 43 92q0 100 -53 126t-138 26zM508 220q-79 -41 -195 -41h-164v-179h-70v703h70v-117h181q148 0 203 -53q54 -53 54 -163q0 -109 -79 -150z" />
    <glyph glyph-name="germandbls" unicode="&#xdf;" horiz-adv-x="530" 
d="M332 396q148 -36 148 -214q0 -88 -58 -138q-58 -52 -152 -52q-31 0 -63 16v70q33 -23 64 -23q137 0 137 139q0 74 -59 119t-148 45v63h12q61 0 105 31t44 84t-30 83t-70 30q-40 1 -62 -11q-39 -21 -49 -67q-11 -46 -11 -106v-540l-70 -22v567q0 176 94 222q40 20 110 20
t114 -50t45 -121q0 -113 -101 -145z" />
    <glyph glyph-name="agrave" unicode="&#xe0;" 
d="M284 257q-68 1 -116 -33q-50 -34 -50 -80t26 -70q26 -26 76 -26t96 34t58 81v67q-22 27 -90 27zM80 412q49 101 189 101q66 -1 120 -41t54 -110v-295q0 -22 27 -22h12v-45h-54q-26 0 -40 13t-14 34v26q-57 -83 -165 -83q-75 0 -117 40t-42 106q0 65 38 106q66 72 199 72
q59 0 87 -13v41q0 111 -113 111q-51 0 -77 -17t-56 -61zM306 577l-56 -1l-160 151h109z" />
    <glyph glyph-name="aacute" unicode="&#xe1;" 
d="M284 257q-68 1 -116 -33q-50 -34 -50 -80t26 -70q26 -26 76 -26t96 34t58 81v67q-22 27 -90 27zM80 412q49 101 189 101q66 -1 120 -41t54 -110v-295q0 -22 27 -22h12v-45h-54q-26 0 -40 13t-14 34v26q-57 -83 -165 -83q-75 0 -117 40t-42 106q0 65 38 106q66 72 199 72
q59 0 87 -13v41q0 111 -113 111q-51 0 -77 -17t-56 -61zM437 727l-161 -151h-56l108 151h109z" />
    <glyph glyph-name="acircumflex" unicode="&#xe2;" 
d="M284 257q-68 1 -116 -33q-50 -34 -50 -80t26 -70q26 -26 76 -26t96 34t58 81v67q-22 27 -90 27zM80 412q49 101 189 101q66 -1 120 -41t54 -110v-295q0 -22 27 -22h12v-45h-54q-26 0 -40 13t-14 34v26q-57 -83 -165 -83q-75 0 -117 40t-42 106q0 65 38 106q66 72 199 72
q59 0 87 -13v41q0 111 -113 111q-51 0 -77 -17t-56 -61zM420 574h-58l-100 84l-95 -84h-56l125 149h55z" />
    <glyph glyph-name="atilde" unicode="&#xe3;" 
d="M284 257q-68 1 -116 -33q-50 -34 -50 -80t26 -70q26 -26 76 -26t96 34t58 81v67q-22 27 -90 27zM80 412q49 101 189 101q66 -1 120 -41t54 -110v-295q0 -22 27 -22h12v-45h-54q-26 0 -40 13t-14 34v26q-57 -83 -165 -83q-75 0 -117 40t-42 106q0 65 38 106q66 72 199 72
q59 0 87 -13v41q0 111 -113 111q-51 0 -77 -17t-56 -61zM333 586q-37 0 -83 30t-61 30q-30 0 -42 -55l-52 4q5 45 31 77t64 32t82 -29t62 -29q32 0 44 56l51 -5q-7 -51 -33 -81t-63 -30z" />
    <glyph glyph-name="adieresis" unicode="&#xe4;" 
d="M284 257q-68 1 -116 -33q-50 -34 -50 -80t26 -70q26 -26 76 -26t96 34t58 81v67q-22 27 -90 27zM80 412q49 101 189 101q66 -1 120 -41t54 -110v-295q0 -22 27 -22h12v-45h-54q-26 0 -40 13t-14 34v26q-57 -83 -165 -83q-75 0 -117 40t-42 106q0 65 38 106q66 72 199 72
q59 0 87 -13v41q0 111 -113 111q-51 0 -77 -17t-56 -61zM220 639q0 -17 -12 -29t-29 -12t-29 12t-12 29t12 29t29 12t29 -12t12 -29zM390 639q0 -17 -12 -29t-29 -12t-29 12t-12 29t12 29t29 12t29 -12t12 -29z" />
    <glyph glyph-name="aring" unicode="&#xe5;" 
d="M284 257q-68 1 -116 -33q-50 -34 -50 -80t26 -70q26 -26 76 -26t96 34t58 81v67q-22 27 -90 27zM256 730q-24 0 -40 -16t-15 -40q-1 -24 15 -42q16 -16 41 -16t40 16t16 41q0 25 -16 41q-17 16 -41 16zM80 412q49 101 189 101q66 -1 120 -41t54 -110v-295q0 -22 27 -22
h12v-45h-54q-26 0 -40 13t-14 34v26q-57 -83 -165 -83q-75 0 -117 40t-42 106q0 65 38 106q66 72 199 72q59 0 87 -13v41q0 111 -113 111q-51 0 -77 -17t-56 -61zM356 674q0 -42 -28 -70t-70 -29q-42 1 -70 29t-28 69t28 69t70 29q42 0 70 -28q28 -27 28 -69z" />
    <glyph glyph-name="ae" unicode="&#xe6;" horiz-adv-x="855" 
d="M118 144q0 -96 103 -96q51 0 97 34t57 81v67q-21 27 -89 27q-68 1 -118 -33t-50 -80zM594 451q-64 1 -103 -41t-46 -117h289q-7 70 -42 114q-34 44 -98 44zM805 265q0 -12 -3 -29h-358q2 -78 40 -132t120 -54t141 75l47 -36q-70 -100 -200 -100t-187 113q-37 -58 -83 -86
t-116 -27q-72 0 -114 41t-42 98q0 103 73 145q73 41 149 41t103 -13v41q0 111 -113 111q-76 1 -108 -39q-11 -14 -26 -39l-48 37q24 49 74 75t105 26q119 0 167 -82q62 81 164 81t158 -71q57 -71 57 -176z" />
    <glyph glyph-name="ccedilla" unicode="&#xe7;" horiz-adv-x="492" 
d="M308 -130q0 35 -42 35q-20 0 -36 -12l-30 7l42 90q-88 10 -140 80t-52 188q0 116 66 185t161 69q57 0 97 -22t78 -70l-52 -36q-44 67 -118 67t-118 -53q-42 -53 -42 -142t37 -148t113 -59t124 68l55 -32q-66 -95 -176 -96l-25 -53q22 9 48 9t45 -17q20 -18 20 -54
t-31 -58t-71 -22t-86 20l10 29q31 -14 64 -14t46 13t13 28z" />
    <glyph glyph-name="egrave" unicode="&#xe8;" horiz-adv-x="526" 
d="M271 451q-63 1 -102 -41t-46 -117h288q-7 70 -42 114t-98 44zM481 258q0 -8 -2 -22h-357q2 -78 40 -132t120 -54t140 75l47 -36q-70 -101 -199 -101q-98 0 -159 70t-61 192t62 192t162 70q98 0 152 -73t55 -181zM321 577l-56 -1l-160 151h109z" />
    <glyph glyph-name="eacute" unicode="&#xe9;" horiz-adv-x="526" 
d="M271 451q-63 1 -102 -41t-46 -117h288q-7 70 -42 114t-98 44zM481 258q0 -8 -2 -22h-357q2 -78 40 -132t120 -54t140 75l47 -36q-70 -101 -199 -101q-98 0 -159 70t-61 192t62 192t162 70q98 0 152 -73t55 -181zM440 727l-161 -151h-56l108 151h109z" />
    <glyph glyph-name="ecircumflex" unicode="&#xea;" horiz-adv-x="526" 
d="M271 451q-63 1 -102 -41t-46 -117h288q-7 70 -42 114t-98 44zM481 258q0 -8 -2 -22h-357q2 -78 40 -132t120 -54t140 75l47 -36q-70 -101 -199 -101q-98 0 -159 70t-61 192t62 192t162 70q98 0 152 -73t55 -181zM423 572l-58 -1l-100 85l-95 -85h-56l125 150h55z" />
    <glyph glyph-name="edieresis" unicode="&#xeb;" horiz-adv-x="526" 
d="M271 451q-63 1 -102 -41t-46 -117h288q-7 70 -42 114t-98 44zM481 258q0 -8 -2 -22h-357q2 -78 40 -132t120 -54t140 75l47 -36q-70 -101 -199 -101q-98 0 -159 70t-61 192t62 192t162 70q98 0 152 -73t55 -181zM228 639q0 -17 -12 -29t-29 -12t-29 12t-12 29t12 29
t29 12t29 -12t12 -29zM398 639q0 -17 -12 -29t-28 -12q-17 0 -29 12t-12 29t12 29t29 12q16 0 28 -12t12 -29z" />
    <glyph glyph-name="igrave" unicode="&#xec;" horiz-adv-x="209" 
d="M139 0h-69v501h69v-501zM156 577l-56 -1l-161 151h109z" />
    <glyph glyph-name="iacute" unicode="&#xed;" horiz-adv-x="209" 
d="M139 0h-69v501h69v-501zM298 727l-161 -151h-56l108 151h109z" />
    <glyph glyph-name="icircumflex" unicode="&#xee;" horiz-adv-x="209" 
d="M139 0h-69v501h69v-501zM259 569h-58l-100 84l-95 -84h-56l125 149h55z" />
    <glyph glyph-name="idieresis" unicode="&#xef;" horiz-adv-x="209" 
d="M139 0h-69v501h69v-501zM60 639q0 -17 -12 -29t-29 -12t-29 12t-12 29t12 29t29 12t29 -12t12 -29zM231 639q0 -17 -12 -29t-29 -12t-29 12t-12 29t12 29t29 12t29 -12t12 -29z" />
    <glyph glyph-name="eth" unicode="&#xf0;" horiz-adv-x="560" 
d="M430 237q0 125 -78 171q-32 18 -75 19q-77 0 -113 -55q-36 -56 -35 -142q0 -86 42 -132q43 -46 111 -47t108 49t40 137zM278 -10q-101 0 -161 68t-60 180q1 111 61 180t156 69t152 -75q-24 96 -86 167l-107 -57l-34 42l98 51q-40 36 -82 53l22 49q13 -7 51 -29t58 -39
l62 33l35 -41l-56 -29q115 -136 115 -343t-134 -263q-40 -16 -90 -16z" />
    <glyph glyph-name="ntilde" unicode="&#xf1;" horiz-adv-x="527" 
d="M457 0h-69v277q0 93 -28 133t-93 40q-128 0 -128 -192v-258h-69v501h69v-71q45 81 141 81t136 -57t41 -171v-283zM333 586q-37 0 -83 30t-61 30q-30 0 -42 -55l-52 4q4 45 31 77t65 32t80 -29t63 -29q32 0 44 56l51 -5q-7 -51 -33 -81t-63 -30z" />
    <glyph glyph-name="ograve" unicode="&#xf2;" horiz-adv-x="544" 
d="M423 249q0 145 -88 189q-27 14 -62 14q-79 0 -115 -59t-36 -151t41 -142t111 -51q70 0 110 53t39 147zM274 -12q-104 0 -164 71t-60 187t60 192q60 74 163 74t162 -72t59 -184t-58 -190t-162 -78zM315 577l-56 -1l-160 151h109z" />
    <glyph glyph-name="oacute" unicode="&#xf3;" horiz-adv-x="544" 
d="M423 249q0 145 -88 189q-27 14 -62 14q-79 0 -115 -59t-36 -151t41 -142t111 -51q70 0 110 53t39 147zM274 -12q-104 0 -164 71t-60 187t60 192q60 74 163 74t162 -72t59 -184t-58 -190t-162 -78zM444 727l-161 -151h-56l108 151h109z" />
    <glyph glyph-name="ocircumflex" unicode="&#xf4;" horiz-adv-x="544" 
d="M423 249q0 145 -88 189q-27 14 -62 14q-79 0 -115 -59t-36 -151t41 -142t111 -51q70 0 110 53t39 147zM274 -12q-104 0 -164 71t-60 187t60 192q60 74 163 74t162 -72t59 -184t-58 -190t-162 -78zM429 572l-59 -1l-99 85l-95 -85h-57l126 150h55z" />
    <glyph glyph-name="otilde" unicode="&#xf5;" horiz-adv-x="544" 
d="M423 249q0 145 -88 189q-27 14 -62 14q-79 0 -115 -59t-36 -151t41 -142t111 -51q70 0 110 53t39 147zM274 -12q-104 0 -164 71t-60 187t60 192q60 74 163 74t162 -72t59 -184t-58 -190t-162 -78zM342 586q-37 0 -83 30t-61 30q-30 0 -42 -55l-52 4q4 45 31 77t65 32
t80 -29t63 -29q32 0 44 56l51 -5q-7 -51 -33 -81t-63 -30z" />
    <glyph glyph-name="odieresis" unicode="&#xf6;" horiz-adv-x="544" 
d="M423 249q0 145 -88 189q-27 14 -62 14q-79 0 -115 -59t-36 -151t41 -142t111 -51q70 0 110 53t39 147zM274 -12q-104 0 -164 71t-60 187t60 192q60 74 163 74t162 -72t59 -184t-58 -190t-162 -78zM228 639q0 -17 -12 -29t-29 -12t-29 12t-12 29t12 29t29 12t29 -12
t12 -29zM398 639q0 -17 -12 -29t-29 -12t-29 12t-12 29t12 29t29 12t29 -12t12 -29z" />
    <glyph glyph-name="divide" unicode="&#xf7;" horiz-adv-x="622" 
d="M367 121q-1 -23 -17 -39t-39 -17q-23 1 -39 17t-17 39q1 23 17 39t39 17q23 -1 39 -17t17 -39zM582 283h-542v64h542v-64zM367 510q-1 -24 -17 -40t-39 -16t-39 16t-17 40q1 24 17 40t39 16t39 -16t17 -40z" />
    <glyph glyph-name="oslash" unicode="&#xf8;" horiz-adv-x="544" 
d="M437 249q0 75 -28 128l-214 -297q38 -32 100 -32t102 54t40 146v1zM286 452q-54 0 -90 -32q-62 -55 -61 -173q0 -77 27 -126l214 298q-36 33 -90 33zM508 254q0 -112 -58 -189t-166 -77q-72 0 -127 39l-57 -80l-50 18l70 98q-57 71 -57 185q1 114 61 188t148 75
q88 0 142 -39l58 80l50 -18l-71 -98q57 -70 57 -182z" />
    <glyph glyph-name="ugrave" unicode="&#xf9;" horiz-adv-x="517" 
d="M447 0h-69v71q-47 -82 -143 -82q-95 1 -135 59t-40 176v277h69v-277q-1 -92 27 -132t87 -41q135 0 135 192v258h69v-501zM311 577l-56 -1l-160 151h109z" />
    <glyph glyph-name="uacute" unicode="&#xfa;" horiz-adv-x="517" 
d="M447 0h-69v71q-47 -82 -143 -82q-95 1 -135 59t-40 176v277h69v-277q-1 -92 27 -132t87 -41q135 0 135 192v258h69v-501zM417 727l-160 -151h-56l107 151h109z" />
    <glyph glyph-name="ucircumflex" unicode="&#xfb;" horiz-adv-x="517" 
d="M447 0h-69v71q-47 -82 -143 -82q-95 1 -135 59t-40 176v277h69v-277q-1 -92 27 -132t87 -41q135 0 135 192v258h69v-501zM410 577l-59 -1l-99 85l-95 -85h-57l126 150h55z" />
    <glyph glyph-name="udieresis" unicode="&#xfc;" horiz-adv-x="517" 
d="M447 0h-69v71q-47 -82 -143 -82q-95 1 -135 59t-40 176v277h69v-277q-1 -92 27 -132t87 -41q135 0 135 192v258h69v-501zM210 639q0 -17 -12 -29t-29 -12t-29 12t-12 29t12 29t29 12t29 -12t12 -29zM380 639q0 -17 -12 -29t-29 -12t-29 12t-12 29t12 29t29 12t29 -12
t12 -29z" />
    <glyph glyph-name="yacute" unicode="&#xfd;" horiz-adv-x="489" 
d="M130 -208q-24 0 -50 11v53q18 -8 36 -8q30 0 45 39l44 114l-177 500h71l141 -416l149 416h72l-242 -636q-13 -35 -39 -54t-50 -19zM426 722l-161 -151h-56l107 151h110z" />
    <glyph glyph-name="thorn" unicode="&#xfe;" horiz-adv-x="543" 
d="M417 256q0 90 -36 142t-101 52t-94 -43q-28 -43 -42 -87l1 -174q17 -44 55 -70t80 -25q70 0 104 58q34 57 33 147zM487 251q-1 -115 -55 -189t-146 -74t-142 77v-265h-68v903h68v-269q54 78 148 78t144 -73t51 -188z" />
    <glyph glyph-name="ydieresis" unicode="&#xff;" horiz-adv-x="492" 
d="M132 -208q-22 0 -51 11v53q21 -8 38 -8q29 0 44 39l43 114l-176 500h70l141 -416l149 416h72l-242 -636q-13 -35 -39 -54q-27 -19 -49 -19zM202 634q0 -17 -12 -29t-29 -12t-29 12t-12 29t12 29t29 12t29 -12t12 -29zM372 634q0 -17 -12 -29t-29 -12t-29 12t-12 29t12 29
t29 12t29 -12t12 -29z" />
    <glyph glyph-name="dotlessi" unicode="&#x131;" horiz-adv-x="209" 
d="M139 0h-69v501h69v-501z" />
    <glyph glyph-name="Lslash" unicode="&#x141;" horiz-adv-x="558" 
d="M533 0h-441v247l-72 -54v74l71 54v383h73v-331l189 139v-75l-189 -138v-232h369v-67z" />
    <glyph glyph-name="lslash" unicode="&#x142;" horiz-adv-x="251" 
d="M160 0h-69v295l-61 -46v79l61 46v329h69v-279l61 46v-78l-61 -46v-346z" />
    <glyph glyph-name="OE" unicode="&#x152;" horiz-adv-x="1012" 
d="M373 656q-107 0 -177 -91t-70 -213t70 -212q70 -91 178 -91q74 0 136 17v572q-63 18 -137 18zM972 0h-454q-70 -15 -144 -15q-74 -1 -136 31t-104 84q-84 107 -84 256q0 150 92 256t233 105q59 0 143 -14h434v-67h-370v-235h279v-67h-279v-268h390v-66z" />
    <glyph glyph-name="oe" unicode="&#x153;" horiz-adv-x="905" 
d="M277 452q-83 0 -119 -60t-36 -150q0 -92 42 -142t110 -51q70 0 110 53t40 136t-22 129q-42 85 -125 85zM644 451q-63 0 -102 -41t-47 -117h289q-7 70 -42 114t-98 44zM631 512q111 0 167 -72t57 -177q0 -17 -2 -27h-358q1 -78 39 -132t120 -54t141 75l47 -36
q-68 -100 -196 -100t-188 108q-61 -108 -187 -108q-101 1 -161 71t-60 186t60 192q60 74 176 74q114 0 174 -107q60 107 171 107z" />
    <glyph glyph-name="Scaron" unicode="&#x160;" horiz-adv-x="564" 
d="M454 180q0 51 -44 88t-152 75t-153 82t-45 122t64 124t162 46q132 1 204 -85q6 -6 27 -30l-54 -45q-35 51 -77 74t-106 23t-108 -30q-43 -30 -43 -81t32 -79q33 -28 149 -70q116 -44 165 -90t49 -129t-70 -137t-169 -53q-168 0 -235 151l53 42q49 -130 183 -130
q78 0 123 40t45 92zM451 929l-125 -149h-55l-129 149h58l100 -84l95 84h56z" />
    <glyph glyph-name="scaron" unicode="&#x161;" horiz-adv-x="439" 
d="M219 453q-96 0 -96 -71q1 -30 23 -49t99 -45q154 -51 154 -154q-1 -64 -47 -104t-125 -41q-118 0 -177 99l51 39q43 -77 127 -77q54 0 79 22t25 58q0 34 -28 58t-114 50q-134 43 -134 141q0 58 44 96t132 38t161 -83l-51 -36q-50 59 -123 59zM377 726l-125 -150h-55
l-129 150h58l100 -85l95 85h56z" />
    <glyph glyph-name="Ydieresis" unicode="&#x178;" horiz-adv-x="611" 
d="M338 0h-71v284l-252 419h83l205 -351l209 351h84l-258 -418v-285zM262 811q0 -17 -12 -29t-29 -12t-29 12t-12 29t12 29t29 12t29 -12t12 -29zM432 811q0 -17 -12 -29t-29 -12t-29 12t-12 29t12 29t29 12t29 -12t12 -29z" />
    <glyph glyph-name="Zcaron" unicode="&#x17d;" horiz-adv-x="582" 
d="M544 64v-64h-509v56l426 580h-403v67h489v-60l-423 -579h420zM442 929l-125 -149h-56l-128 149h58l99 -84l96 84h56z" />
    <glyph glyph-name="zcaron" unicode="&#x17e;" horiz-adv-x="410" 
d="M385 0h-360v47l270 396h-248v58h335v-46l-270 -395h273v-60zM362 726l-125 -150h-55l-129 150h58l100 -85l95 85h56z" />
    <glyph glyph-name="florin" unicode="&#x192;" horiz-adv-x="401" 
d="M333 501v-57h-118l-110 -525q-13 -61 -49 -95t-81 -33v54q21 3 39 21t23 45l112 533h-85v57h97l18 84q26 129 140 129q47 0 62 -19v-70q-13 36 -56 36h-6q-58 -2 -73 -67l-19 -93h106z" />
    <glyph glyph-name="circumflex" unicode="&#x2c6;" horiz-adv-x="450" 
d="M380 577l-59 -1l-99 85l-95 -85h-57l125 150h55z" />
    <glyph glyph-name="caron" unicode="&#x2c7;" horiz-adv-x="449" 
d="M379 726l-125 -150h-55l-129 150h58l99 -85l96 85h56z" />
    <glyph glyph-name="breve" unicode="&#x2d8;" horiz-adv-x="450" 
d="M224 579q-68 0 -108 39q-41 39 -46 102h53q8 -84 100 -84q39 0 69 20t35 64h53q-4 -60 -46 -100t-110 -41z" />
    <glyph glyph-name="dotaccent" unicode="&#x2d9;" horiz-adv-x="222" 
d="M152 639q0 -17 -12 -29t-29 -12t-29 12t-12 29t12 29t29 12t29 -12t12 -29z" />
    <glyph glyph-name="ring" unicode="&#x2da;" horiz-adv-x="336" 
d="M168 730q-24 0 -41 -16q-16 -16 -16 -40q-1 -24 15 -42q16 -16 41 -16t41 16t15 42l1 -1q0 25 -16 41t-40 16zM266 674q0 -42 -28 -70t-70 -29q-42 1 -70 29t-28 69t28 69t70 29q42 0 70 -28q28 -27 28 -69z" />
    <glyph glyph-name="ogonek" unicode="&#x2db;" horiz-adv-x="313" 
d="M129 -115q0 -40 56 -40q17 0 50 7l8 -37q-41 -20 -77 -20t-66 18q-30 19 -30 53t32 76t64 65h49q-30 -21 -58 -59t-28 -63z" />
    <glyph glyph-name="tilde" unicode="&#x2dc;" horiz-adv-x="474" 
d="M308 586q-37 0 -83 30t-61 30q-30 0 -42 -55l-52 4q4 45 30 77t66 32q38 0 80 -29t63 -29q33 0 43 56l52 -5q-7 -51 -33 -81t-63 -30z" />
    <glyph glyph-name="hungarumlaut" unicode="&#x2dd;" horiz-adv-x="510" 
d="M278 727l-154 -151h-54l102 151h106zM440 727l-153 -151h-55l102 151h106z" />
    <glyph glyph-name="endash" unicode="&#x2013;" horiz-adv-x="494" 
d="M40 380h414v-68l-414 -1v69z" />
    <glyph glyph-name="emdash" unicode="&#x2014;" horiz-adv-x="626" 
d="M40 380h546v-68l-546 -1v69z" />
    <glyph glyph-name="quoteleft" unicode="&#x2018;" horiz-adv-x="229" 
d="M194 706l-75 -239h-79l105 250z" />
    <glyph glyph-name="quoteright" unicode="&#x2019;" horiz-adv-x="229" 
d="M189 702l-105 -249l-49 11l75 238h79z" />
    <glyph glyph-name="quotesinglbase" unicode="&#x201a;" horiz-adv-x="234" 
d="M194 106l-75 -239h-79l105 250z" />
    <glyph glyph-name="quotedblleft" unicode="&#x201c;" horiz-adv-x="399" 
d="M194 706l-75 -239h-79l105 250zM364 706l-75 -239h-78l105 250z" />
    <glyph glyph-name="quotedblright" unicode="&#x201d;" horiz-adv-x="399" 
d="M189 702l-105 -249l-49 11l75 238h79zM359 702l-105 -249l-48 11l75 238h78z" />
    <glyph glyph-name="quotedblbase" unicode="&#x201e;" horiz-adv-x="404" 
d="M194 106l-75 -239h-79l105 250zM364 106l-75 -239h-78l105 250z" />
    <glyph glyph-name="dagger" unicode="&#x2020;" horiz-adv-x="566" 
d="M496 439h-179v-439h-68v438h-179v63h178v202h69v-202h179v-62z" />
    <glyph glyph-name="daggerdbl" unicode="&#x2021;" horiz-adv-x="564" 
d="M494 175h-177v-225h-68v225h-179v62h179v202h-179v62h178v203h69v-203h177v-62h-177v-202h177v-62z" />
    <glyph glyph-name="bullet" unicode="&#x2022;" horiz-adv-x="356" 
d="M291 360q0 -46 -33 -80q-34 -34 -80 -34t-80 33t-33 80q0 47 33 81q34 34 80 34t80 -34t33 -80z" />
    <glyph glyph-name="ellipsis" unicode="&#x2026;" horiz-adv-x="650" 
d="M139 40q-1 -20 -15 -36q-14 -14 -34 -14t-36 14q-14 14 -14 36q0 20 14 34t36 15q20 -1 34 -15t15 -34zM373 40q-1 -20 -15 -36q-14 -14 -34 -14t-36 14q-14 14 -14 36q0 20 14 34t36 15q20 -1 34 -15t15 -34zM610 40q0 -20 -14 -36q-14 -14 -36 -14q-20 0 -34 14t-15 36
q1 20 15 34t34 15q20 -1 36 -15q14 -14 14 -34z" />
    <glyph glyph-name="perthousand" unicode="&#x2030;" horiz-adv-x="1314" 
d="M110 514q0 -195 100 -195q34 0 58 26q42 46 41 140v2q0 77 -26 125t-73 49q-48 0 -74 -48t-26 -99zM619 238q0 -195 100 -195q33 0 57 26q42 46 42 140v2q0 77 -26 125t-73 49q-47 0 -73 -48t-27 -99zM1005 238q0 -195 100 -195q33 0 57 26q42 46 42 140v2q0 77 -26 125
t-73 49q-47 0 -73 -48t-27 -99zM369 489v-3q-1 -96 -43 -158t-118 -62t-117 64t-41 161q0 98 42 160t120 62q77 0 117 -65t40 -159zM691 715l-394 -735l-57 9l393 736zM878 213v-3q-1 -96 -43 -158q-41 -62 -117 -62t-118 64t-41 162t43 159q42 62 119 62t117 -65t40 -159z
M1264 213v-3q-1 -96 -43 -158q-41 -62 -117 -62t-118 64t-41 162t43 159q42 62 119 62t117 -65t40 -159z" />
    <glyph glyph-name="guilsinglleft" unicode="&#x2039;" horiz-adv-x="307" 
d="M267 84l-66 -16l-161 217l161 225l66 -15l-151 -209z" />
    <glyph glyph-name="guilsinglright" unicode="&#x203a;" horiz-adv-x="307" 
d="M267 293l-161 -225l-66 15l151 209l-151 202l66 16z" />
    <glyph glyph-name="fraction" unicode="&#x2044;" horiz-adv-x="287" 
d="M387 708l-429 -720l-58 6l429 722z" />
    <glyph glyph-name="Euro" unicode="&#x20ac;" horiz-adv-x="687" 
d="M393 653q-87 1 -141 -57t-72 -151h262l-22 -64h-249v-29q0 -27 1 -40h270l-22 -64h-238q20 -88 74 -142t137 -55q115 0 175 107l62 -40q-81 -133 -236 -133q-118 -1 -192 73t-96 190h-106l20 64h77q-1 13 -1 36t1 32h-97l20 65h84q22 121 98 197t182 76q199 0 273 -181
l-70 -27q-59 143 -194 143z" />
    <glyph glyph-name="trademark" unicode="&#x2122;" horiz-adv-x="746" 
d="M321 662h-111v-324h-47v323h-113v43h271v-42zM696 338h-46v297q-20 -80 -58 -175q-38 -96 -48 -123h-26q-14 29 -55 144q-40 115 -50 153q1 -33 1 -296h-44v366h60q0 -1 39 -107t64 -186q17 57 59 173t44 120h60v-366z" />
    <glyph glyph-name="minus" unicode="&#x2212;" horiz-adv-x="642" 
d="M592 283h-542v64h542v-64z" />
    <glyph glyph-name="CR" unicode="&#xe001;" horiz-adv-x="500" 
 />
    </font>
</defs>
</svg>
